<svg id="svg" version="1.1" xmlns="http://www.w3.org/2000/svg" xmlns:xlink="http://www.w3.org/1999/xlink" width="400" height="376.47058823529414" viewBox="0, 0, 400,376.47058823529414"><g id="svgg"><path id="path0" d="M5.900 3.730 C 3.479 6.237,2.506 7.658,4.222 6.179 C 6.702 4.043,9.325 1.130,8.771 1.130 C 8.572 1.130,7.280 2.300,5.900 3.730 M1.939 8.841 C 1.515 9.560,1.287 10.222,1.434 10.313 C 1.580 10.403,1.983 9.815,2.329 9.005 C 3.106 7.184,2.955 7.119,1.939 8.841 M156.309 91.917 C 149.663 92.684,143.501 95.714,138.429 100.709 C 133.352 105.711,130.149 111.737,129.381 117.739 C 128.943 121.164,129.063 238.027,129.507 240.168 C 132.096 252.647,141.877 262.796,154.049 265.632 C 157.865 266.522,274.294 266.615,279.284 265.732 C 291.766 263.526,301.885 253.947,305.051 241.343 L 305.877 238.054 305.849 179.773 C 305.833 147.719,305.730 120.810,305.619 119.974 C 304.154 108.950,295.712 97.874,286.000 94.234 C 285.414 94.014,283.748 93.363,282.298 92.786 L 279.661 91.738 219.209 91.686 C 185.960 91.658,157.655 91.762,156.309 91.917 M276.277 101.457 C 284.083 102.629,291.429 107.992,294.146 114.501 C 294.362 115.019,294.699 115.723,294.896 116.065 C 296.617 119.068,296.583 117.734,296.467 178.154 C 296.378 224.563,296.263 235.405,295.832 237.957 C 294.405 246.408,288.823 252.609,279.845 255.716 C 276.370 256.918,159.667 256.950,155.388 255.750 C 146.775 253.333,140.810 247.079,139.037 238.606 C 138.774 237.350,138.618 217.152,138.569 177.966 L 138.495 119.209 139.438 116.681 C 142.432 108.648,148.790 103.088,156.804 101.495 C 160.386 100.782,271.553 100.747,276.277 101.457 M186.252 137.159 C 184.352 138.141,182.865 139.506,181.596 141.431 L 180.603 142.938 180.603 179.528 L 180.603 216.119 182.144 217.947 C 186.959 223.654,192.660 223.661,201.507 217.968 C 202.853 217.102,204.179 216.179,204.453 215.918 C 204.726 215.656,205.108 215.443,205.300 215.443 C 205.492 215.443,205.961 215.146,206.341 214.783 C 206.721 214.421,207.419 213.870,207.891 213.559 C 208.364 213.249,209.139 212.698,209.613 212.335 C 210.088 211.973,210.558 211.676,210.657 211.676 C 210.757 211.676,212.706 210.447,214.988 208.945 C 219.579 205.925,224.326 202.843,226.132 201.711 C 229.028 199.896,234.933 196.090,235.860 195.441 C 236.422 195.048,236.954 194.727,237.043 194.727 C 237.198 194.727,241.481 191.972,245.359 189.378 C 253.940 183.637,254.261 174.955,246.101 169.345 C 243.830 167.784,238.727 164.550,236.158 163.043 C 235.019 162.374,232.952 161.094,231.564 160.198 C 230.177 159.302,228.941 158.569,228.818 158.569 C 228.695 158.569,228.135 158.254,227.574 157.870 C 226.083 156.848,221.045 153.660,218.856 152.354 C 217.815 151.733,216.960 151.117,216.956 150.986 C 216.952 150.854,216.653 150.645,216.290 150.521 C 215.927 150.397,214.614 149.625,213.371 148.807 C 210.849 147.146,206.013 144.143,205.516 143.929 C 205.339 143.853,203.944 142.963,202.417 141.952 C 200.890 140.940,199.548 140.113,199.436 140.113 C 199.323 140.113,198.581 139.683,197.787 139.158 C 193.913 136.594,188.993 135.742,186.252 137.159 M163.653 305.461 C 163.782 305.669,164.258 305.835,164.711 305.832 C 165.382 305.828,165.431 305.758,164.972 305.461 C 164.230 304.982,163.357 304.982,163.653 305.461 M219.968 325.706 C 219.965 326.172,220.132 326.554,220.339 326.554 C 220.811 326.554,220.811 326.154,220.339 325.424 C 220.044 324.967,219.973 325.021,219.968 325.706 M225.330 338.041 C 225.335 338.870,225.412 339.165,225.502 338.696 C 225.592 338.228,225.588 337.550,225.494 337.190 C 225.400 336.829,225.326 337.213,225.330 338.041 M225.017 344.473 C 224.862 345.299,224.928 345.983,225.188 346.243 C 225.502 346.557,225.612 346.208,225.612 344.896 C 225.612 342.788,225.366 342.613,225.017 344.473 M221.375 355.020 C 221.219 355.176,221.092 355.649,221.092 356.070 C 221.092 356.625,221.206 356.722,221.504 356.424 C 221.731 356.198,221.858 355.725,221.787 355.373 C 221.716 355.022,221.530 354.863,221.375 355.020 M219.780 357.430 C 219.651 357.639,219.699 358.084,219.887 358.420 C 220.185 358.953,220.255 358.929,220.437 358.235 C 220.658 357.388,220.173 356.793,219.780 357.430 M0.000 357.963 C 0.000 358.252,0.254 358.586,0.565 358.705 C 1.197 358.947,1.228 358.885,0.901 358.035 C 0.619 357.299,0.000 357.250,0.000 357.963 M10.317 368.884 C 10.417 369.597,11.511 370.621,12.171 370.621 C 12.364 370.621,12.333 370.394,12.102 370.116 C 11.871 369.838,11.808 369.472,11.962 369.302 C 12.115 369.133,12.018 369.123,11.745 369.281 C 11.443 369.455,11.048 369.295,10.733 368.870 C 10.233 368.194,10.220 368.195,10.317 368.884 M19.209 375.180 C 19.657 375.500,19.587 375.542,18.872 375.383 C 18.228 375.241,18.086 375.299,18.376 375.589 C 18.865 376.078,20.108 375.682,19.776 375.144 C 19.647 374.935,19.339 374.767,19.093 374.770 C 18.816 374.774,18.860 374.931,19.209 375.180 M20.956 375.779 C 20.532 376.203,20.698 376.648,21.281 376.648 C 21.591 376.648,21.846 376.488,21.846 376.293 C 21.846 375.818,21.257 375.478,20.956 375.779 " stroke="none" fill="#b7d3cf" fill-rule="evenodd"></path><path id="path1" d="M1.943 10.001 C 1.680 10.577,1.329 10.857,1.070 10.698 C 0.808 10.536,0.739 10.595,0.895 10.848 C 1.272 11.458,2.152 10.999,2.396 10.066 C 2.698 8.910,2.456 8.875,1.943 10.001 M208.374 10.169 C 208.374 10.895,208.451 11.191,208.546 10.829 C 208.641 10.466,208.641 9.873,208.546 9.510 C 208.451 9.148,208.374 9.444,208.374 10.169 M177.144 91.431 C 181.871 91.491,189.498 91.491,194.094 91.431 C 198.689 91.371,194.821 91.322,185.499 91.322 C 176.177 91.322,172.417 91.371,177.144 91.431 M156.215 91.791 C 156.681 91.881,157.444 91.881,157.910 91.791 C 158.376 91.701,157.994 91.628,157.062 91.628 C 156.130 91.628,155.749 91.701,156.215 91.791 M138.018 100.659 L 136.911 101.883 138.136 100.777 C 139.277 99.746,139.533 99.435,139.242 99.435 C 139.177 99.435,138.626 99.986,138.018 100.659 M187.694 101.224 C 203.610 101.278,229.542 101.278,245.321 101.224 C 261.101 101.170,248.079 101.125,216.384 101.125 C 184.689 101.125,171.779 101.170,187.694 101.224 M296.798 101.813 C 296.798 101.878,297.349 102.428,298.023 103.037 L 299.247 104.143 298.140 102.919 C 297.109 101.778,296.798 101.522,296.798 101.813 M138.395 130.508 C 138.394 136.102,138.447 138.442,138.511 135.710 C 138.575 132.977,138.576 128.401,138.511 125.540 C 138.447 122.680,138.395 124.915,138.395 130.508 M296.587 132.015 C 296.588 137.815,296.640 140.136,296.704 137.171 C 296.767 134.207,296.767 129.461,296.703 126.625 C 296.639 123.789,296.587 126.215,296.587 132.015 M128.578 125.989 C 128.579 128.267,128.641 129.151,128.716 127.952 C 128.791 126.754,128.790 124.889,128.714 123.809 C 128.638 122.729,128.577 123.710,128.578 125.989 M306.021 177.024 C 306.021 205.923,306.066 217.745,306.120 203.296 C 306.175 188.847,306.175 165.202,306.120 150.753 C 306.066 136.304,306.021 148.126,306.021 177.024 M38.795 128.834 C 38.070 128.999,36.544 129.314,35.405 129.533 C 32.792 130.034,30.269 130.648,28.814 131.137 C 28.192 131.346,27.049 131.672,26.274 131.861 C 24.322 132.339,19.613 134.975,14.900 138.230 C 12.990 139.549,10.266 142.091,9.040 143.699 C 8.315 144.650,7.105 146.169,6.352 147.075 C 5.598 147.981,4.452 149.650,3.803 150.783 C 3.155 151.916,2.389 152.933,2.101 153.044 C 1.813 153.154,1.461 153.776,1.318 154.426 C 1.176 155.075,0.821 155.698,0.529 155.810 C -0.215 156.095,-0.274 351.992,0.471 352.293 C 0.847 352.445,0.847 352.489,0.471 352.513 C -0.084 352.548,-0.176 354.426,0.377 354.426 C 0.584 354.426,0.753 354.680,0.753 354.991 C 0.753 355.301,0.584 355.556,0.377 355.556 C -0.189 355.556,-0.076 356.576,0.515 356.803 C 0.856 356.933,0.992 357.484,0.916 358.435 C 0.807 359.807,9.421 369.612,10.121 368.913 C 10.225 368.808,8.239 366.667,5.708 364.154 C 3.176 361.641,1.157 359.428,1.221 359.237 C 1.445 358.565,2.071 358.765,2.071 359.509 C 2.071 359.926,2.323 360.262,2.637 360.263 C 2.947 360.263,3.204 360.433,3.207 360.640 C 3.219 361.406,3.846 362.062,4.129 361.604 C 4.321 361.293,4.538 361.338,4.889 361.761 C 5.311 362.270,5.280 362.317,4.667 362.100 C 4.071 361.889,4.035 361.933,4.444 362.374 C 4.714 362.663,5.095 362.900,5.292 362.900 C 5.489 362.900,5.607 363.044,5.556 363.219 C 5.504 363.395,5.970 363.763,6.591 364.036 C 7.213 364.310,7.483 364.548,7.192 364.565 C 6.781 364.588,6.814 364.762,7.337 365.340 C 7.707 365.749,8.183 365.977,8.395 365.846 C 8.606 365.716,8.670 365.785,8.537 366.001 C 8.404 366.216,8.667 366.490,9.121 366.609 C 9.576 366.728,9.830 366.943,9.686 367.088 C 9.306 367.468,10.181 368.399,10.647 368.111 C 10.866 367.976,10.928 368.049,10.787 368.277 C 10.532 368.689,11.164 369.287,11.864 369.297 C 12.072 369.301,12.241 369.501,12.241 369.743 C 12.241 370.268,12.735 370.810,13.214 370.810 C 13.702 370.810,13.699 371.517,13.211 371.679 C 12.988 371.753,12.806 371.637,12.806 371.419 C 12.806 371.202,12.425 370.828,11.959 370.587 C 11.326 370.261,11.440 370.497,12.409 371.516 C 13.824 373.005,14.132 373.182,13.800 372.316 C 13.670 371.979,13.797 371.751,14.114 371.751 C 14.451 371.751,14.590 372.040,14.494 372.538 C 14.375 373.158,14.449 373.237,14.845 372.908 C 15.231 372.588,15.491 372.711,15.969 373.440 C 16.310 373.961,16.904 374.388,17.288 374.388 C 17.673 374.388,18.198 374.642,18.456 374.953 C 18.714 375.264,19.116 375.515,19.349 375.512 C 19.583 375.509,19.520 375.339,19.209 375.134 C 18.783 374.853,18.941 374.781,19.849 374.841 C 20.861 374.909,20.982 375.011,20.602 375.479 C 20.230 375.937,20.265 375.993,20.800 375.792 C 21.209 375.639,21.590 375.787,21.829 376.193 C 22.161 376.755,22.256 376.765,22.586 376.271 C 22.922 375.769,22.965 375.769,22.976 376.271 C 22.986 376.773,23.031 376.773,23.387 376.271 C 23.687 375.846,23.833 375.823,23.977 376.177 C 24.224 376.784,196.234 376.879,196.234 376.271 C 196.234 376.064,196.911 375.895,197.740 375.895 C 198.745 375.895,199.498 375.643,200.000 375.141 C 200.414 374.727,201.069 374.388,201.456 374.388 C 201.842 374.388,202.563 374.072,203.057 373.686 C 203.551 373.301,204.379 372.857,204.896 372.702 C 205.414 372.546,206.177 372.118,206.591 371.752 C 207.006 371.386,207.853 370.805,208.475 370.461 C 210.138 369.541,212.014 368.150,214.000 366.365 C 214.967 365.495,215.984 364.592,216.260 364.357 C 217.234 363.528,219.209 361.266,219.209 360.980 C 219.209 360.820,219.543 360.333,219.952 359.898 C 221.148 358.625,224.347 352.034,224.631 350.257 C 224.774 349.359,225.096 348.379,225.346 348.078 C 226.806 346.321,225.714 334.364,223.704 330.091 C 223.303 329.239,222.976 328.422,222.976 328.273 C 222.976 328.016,219.635 323.533,218.116 321.751 C 217.719 321.285,217.209 320.904,216.983 320.904 C 216.757 320.904,216.573 320.765,216.573 320.594 C 216.573 320.199,213.848 318.407,212.722 318.061 C 212.250 317.917,211.693 317.663,211.483 317.496 C 210.842 316.988,207.076 315.696,205.085 315.301 C 204.049 315.096,202.524 314.752,201.695 314.535 C 200.866 314.319,199.545 314.138,198.759 314.133 C 197.973 314.128,196.278 313.884,194.993 313.591 C 193.707 313.298,191.638 312.874,190.395 312.649 C 185.523 311.767,183.030 311.187,182.580 310.828 C 182.321 310.622,181.303 310.336,180.318 310.194 C 179.333 310.051,178.062 309.692,177.493 309.395 C 176.925 309.099,176.169 308.855,175.813 308.854 C 175.216 308.851,174.107 308.439,171.186 307.132 C 170.565 306.854,169.343 306.445,168.472 306.222 C 167.600 306.000,166.785 305.653,166.660 305.451 C 166.536 305.250,166.185 305.085,165.880 305.085 C 165.381 305.085,163.370 304.215,157.555 301.482 C 156.479 300.976,155.494 300.394,155.367 300.187 C 155.239 299.981,154.818 299.812,154.430 299.812 C 154.043 299.812,153.502 299.599,153.228 299.340 C 152.955 299.080,151.798 298.382,150.659 297.789 C 149.520 297.196,147.910 296.310,147.081 295.821 C 146.252 295.331,145.193 294.730,144.727 294.486 C 144.261 294.241,143.879 293.899,143.879 293.725 C 143.879 293.551,143.668 293.408,143.409 293.407 C 142.967 293.406,139.392 291.146,138.204 290.117 C 137.907 289.860,136.459 288.843,134.986 287.857 C 130.054 284.557,126.393 281.581,120.716 276.258 C 116.019 271.853,113.371 269.269,113.371 269.090 C 113.371 269.000,112.735 268.274,111.959 267.476 C 111.182 266.678,109.444 264.698,108.098 263.075 C 106.751 261.452,105.353 259.817,104.991 259.441 C 104.628 259.065,104.331 258.672,104.331 258.569 C 104.331 258.083,102.906 257.031,102.425 257.161 C 101.984 257.281,101.988 257.233,102.448 256.902 C 102.873 256.598,102.900 256.424,102.560 256.203 C 102.078 255.891,101.287 254.782,97.261 248.776 C 95.873 246.704,94.605 244.840,94.443 244.633 C 93.944 243.994,91.907 240.190,91.266 238.701 C 90.932 237.924,90.514 237.288,90.338 237.288 C 90.163 237.288,90.019 237.050,90.019 236.758 C 90.019 236.188,88.137 232.329,87.704 232.011 C 87.560 231.906,87.327 231.362,87.187 230.803 C 87.047 230.244,86.694 229.589,86.404 229.348 C 86.113 229.107,85.876 228.694,85.876 228.429 C 85.876 228.165,85.379 226.947,84.771 225.723 C 84.163 224.498,83.545 222.998,83.397 222.388 C 83.248 221.779,82.898 220.946,82.618 220.538 C 82.338 220.129,82.103 219.536,82.096 219.219 C 82.089 218.903,81.756 217.966,81.356 217.137 C 80.956 216.309,80.622 215.354,80.615 215.015 C 80.608 214.676,80.349 213.913,80.040 213.320 C 79.731 212.727,79.475 211.902,79.473 211.488 C 79.470 211.073,79.225 210.269,78.929 209.701 C 78.632 209.132,78.271 207.878,78.127 206.915 C 77.982 205.951,77.634 204.721,77.352 204.182 C 77.071 203.643,76.840 202.645,76.838 201.965 C 76.837 201.285,76.601 200.166,76.314 199.479 C 76.026 198.791,75.680 197.483,75.543 196.572 C 75.407 195.661,75.061 193.898,74.773 192.655 C 74.271 190.482,73.894 187.905,73.007 180.603 C 72.431 175.851,72.469 151.809,73.060 147.081 C 73.731 141.719,73.672 141.336,71.929 139.726 C 71.106 138.967,70.433 138.167,70.433 137.948 C 70.433 137.730,69.882 137.196,69.209 136.763 C 68.536 136.329,66.798 135.129,65.348 134.096 C 63.898 133.062,62.301 132.214,61.800 132.210 C 61.298 132.206,60.594 131.938,60.235 131.613 C 58.121 129.699,43.371 127.787,38.795 128.834 M128.995 174.011 C 128.995 197.109,129.041 206.558,129.096 195.009 C 129.151 183.460,129.151 164.562,129.096 153.013 C 129.041 141.464,128.995 150.913,128.995 174.011 M183.221 139.077 L 181.733 140.678 183.422 139.171 C 184.351 138.343,185.184 137.622,185.274 137.571 C 185.363 137.519,185.273 137.476,185.073 137.476 C 184.874 137.476,184.040 138.197,183.221 139.077 M180.218 179.849 C 180.218 198.079,180.264 205.592,180.320 196.544 C 180.376 187.497,180.376 172.582,180.320 163.399 C 180.264 154.217,180.218 161.620,180.218 179.849 M296.226 199.623 C 296.226 219.614,296.272 227.792,296.328 217.797 C 296.383 207.801,296.383 191.445,296.328 181.450 C 296.272 171.455,296.226 179.633,296.226 199.623 M249.487 172.616 C 250.285 173.591,251.017 174.388,251.113 174.388 C 251.370 174.388,248.984 171.432,248.472 171.115 C 248.232 170.966,248.688 171.642,249.487 172.616 M224.974 202.476 L 223.917 203.445 225.141 202.593 C 225.815 202.125,226.365 201.689,226.365 201.624 C 226.365 201.327,225.949 201.582,224.974 202.476 M181.478 217.608 C 181.884 218.178,182.606 218.983,183.083 219.397 C 183.559 219.812,183.287 219.346,182.478 218.362 C 180.860 216.392,180.323 215.988,181.478 217.608 M189.360 222.488 C 189.826 222.578,190.589 222.578,191.055 222.488 C 191.521 222.398,191.139 222.325,190.207 222.325 C 189.275 222.325,188.894 222.398,189.360 222.488 M305.962 234.840 C 305.963 236.290,306.031 236.837,306.113 236.056 C 306.194 235.274,306.193 234.088,306.110 233.419 C 306.027 232.750,305.960 233.390,305.962 234.840 M138.727 235.405 C 138.727 236.751,138.795 237.302,138.879 236.629 C 138.962 235.956,138.962 234.854,138.879 234.181 C 138.795 233.508,138.727 234.058,138.727 235.405 M289.440 249.812 L 287.571 251.789 289.548 249.920 C 291.385 248.183,291.698 247.834,291.417 247.834 C 291.358 247.834,290.468 248.724,289.440 249.812 M144.821 249.718 C 145.630 250.546,146.377 251.224,146.481 251.224 C 146.584 251.224,146.007 250.546,145.198 249.718 C 144.389 248.889,143.642 248.211,143.538 248.211 C 143.435 248.211,144.012 248.889,144.821 249.718 M298.470 254.331 L 297.363 255.556 298.588 254.449 C 299.261 253.841,299.812 253.290,299.812 253.225 C 299.812 252.934,299.501 253.190,298.470 254.331 M138.041 256.874 C 139.062 257.910,139.981 258.757,140.085 258.757 C 140.188 258.757,139.438 257.910,138.418 256.874 C 137.398 255.838,136.478 254.991,136.375 254.991 C 136.271 254.991,137.021 255.838,138.041 256.874 M293.900 258.973 L 292.844 259.942 294.068 259.090 C 294.741 258.622,295.292 258.186,295.292 258.121 C 295.292 257.824,294.875 258.079,293.900 258.973 M140.625 259.048 C 140.923 259.530,143.126 261.161,143.126 260.899 C 143.126 260.806,142.504 260.255,141.743 259.675 C 140.983 259.095,140.480 258.813,140.625 259.048 M143.708 261.421 C 143.952 261.816,146.893 263.393,146.893 263.128 C 146.893 263.038,146.126 262.536,145.189 262.012 C 144.252 261.489,143.585 261.222,143.708 261.421 M170.550 266.195 C 173.515 266.259,178.260 266.259,181.096 266.195 C 183.932 266.131,181.507 266.079,175.706 266.079 C 169.906 266.079,167.586 266.131,170.550 266.195 M277.307 266.173 C 277.669 266.268,278.263 266.268,278.625 266.173 C 278.988 266.078,278.691 266.001,277.966 266.001 C 277.241 266.001,276.944 266.078,277.307 266.173 M164.972 305.461 C 165.431 305.758,165.382 305.828,164.711 305.832 C 164.258 305.835,163.782 305.669,163.653 305.461 C 163.357 304.982,164.230 304.982,164.972 305.461 M220.710 326.271 C 220.713 326.427,220.546 326.554,220.339 326.554 C 220.132 326.554,219.965 326.172,219.968 325.706 C 219.974 324.898,220.693 325.446,220.710 326.271 M225.502 338.696 C 225.412 339.165,225.335 338.870,225.330 338.041 C 225.326 337.213,225.400 336.829,225.494 337.190 C 225.588 337.550,225.592 338.228,225.502 338.696 M225.612 344.896 C 225.612 346.208,225.502 346.557,225.188 346.243 C 224.928 345.983,224.862 345.299,225.017 344.473 C 225.366 342.613,225.612 342.788,225.612 344.896 M221.504 356.424 C 221.206 356.722,221.092 356.625,221.092 356.070 C 221.092 355.075,221.619 354.546,221.787 355.373 C 221.858 355.725,221.731 356.198,221.504 356.424 M220.437 358.235 C 220.255 358.929,220.185 358.953,219.887 358.420 C 219.514 357.754,219.823 356.932,220.330 357.245 C 220.503 357.352,220.551 357.798,220.437 358.235 " stroke="none" fill="#83bab3" fill-rule="evenodd"></path><path id="path2" d="M8.887 0.607 C 8.717 1.051,8.815 1.152,9.254 0.984 C 9.584 0.857,9.925 0.753,10.012 0.753 C 10.099 0.753,10.169 0.584,10.169 0.377 C 10.169 -0.237,9.140 -0.052,8.887 0.607 M208.663 0.301 C 208.663 0.467,208.804 0.764,208.977 0.960 C 210.735 2.961,210.973 9.088,209.427 12.533 C 207.489 16.849,202.296 19.663,192.655 21.623 C 183.342 23.516,178.364 24.828,172.128 27.033 C 170.367 27.656,168.333 28.374,167.608 28.630 C 166.883 28.885,165.782 29.317,165.160 29.590 C 164.539 29.863,163.183 30.458,162.147 30.912 C 156.511 33.385,145.467 39.423,141.620 42.134 C 140.687 42.791,138.992 43.958,137.853 44.728 C 136.714 45.498,134.365 47.233,132.633 48.582 C 130.901 49.932,129.036 51.365,128.489 51.768 C 119.651 58.275,104.566 75.063,97.073 86.730 C 89.439 98.618,83.588 110.485,80.411 120.527 C 80.050 121.667,79.522 123.283,79.237 124.119 C 75.112 136.214,73.301 149.756,73.544 166.667 C 73.749 180.900,75.001 191.200,77.803 201.695 C 79.898 209.542,81.073 213.566,81.927 215.819 C 83.731 220.574,85.705 225.293,87.378 228.847 C 89.398 233.136,89.896 234.122,91.928 237.853 C 92.605 239.096,93.535 240.807,93.995 241.655 C 94.735 243.019,95.838 244.909,96.987 246.782 C 97.758 248.039,100.150 251.462,101.275 252.919 C 102.827 254.928,102.847 254.954,104.123 256.686 C 104.734 257.514,105.333 258.277,105.454 258.380 C 105.576 258.484,106.346 259.416,107.165 260.452 C 111.364 265.760,120.383 275.006,125.071 278.807 C 125.394 279.070,126.665 280.137,127.895 281.178 C 133.040 285.535,145.226 293.825,150.944 296.858 C 152.548 297.709,154.128 298.637,154.455 298.920 C 154.782 299.203,155.246 299.435,155.486 299.435 C 155.725 299.435,156.898 299.933,158.092 300.543 C 162.339 302.709,165.286 303.980,169.962 305.660 C 170.843 305.976,171.902 306.396,172.316 306.593 C 176.309 308.490,188.754 311.512,199.527 313.202 C 208.222 314.565,212.624 316.152,216.568 319.347 C 232.437 332.198,229.976 356.161,211.383 369.838 C 209.990 370.863,208.549 371.972,208.180 372.303 C 207.811 372.634,207.006 373.006,206.391 373.129 C 205.776 373.252,205.273 373.487,205.273 373.653 C 205.273 373.818,204.693 374.144,203.985 374.378 C 203.276 374.612,202.493 375.049,202.244 375.349 C 201.995 375.649,201.388 375.895,200.896 375.895 C 200.403 375.895,200.000 376.064,200.000 376.271 C 200.000 376.517,206.340 376.648,218.267 376.648 C 230.195 376.648,236.535 376.517,236.535 376.271 C 236.535 376.041,238.277 375.895,241.008 375.895 C 244.453 375.895,245.586 375.769,245.935 375.349 C 246.201 375.028,247.454 374.699,248.988 374.548 C 250.443 374.405,251.777 374.064,252.017 373.775 C 252.291 373.445,253.239 373.258,254.633 373.258 C 256.017 373.258,257.016 373.062,257.353 372.725 C 257.646 372.432,258.689 372.071,259.670 371.924 C 260.651 371.777,261.543 371.424,261.652 371.139 C 261.786 370.791,262.499 370.621,263.836 370.621 C 265.125 370.621,265.983 370.427,266.282 370.066 C 266.535 369.761,267.332 369.401,268.053 369.266 C 268.774 369.130,269.453 368.787,269.562 368.502 C 269.692 368.163,270.382 367.985,271.563 367.985 C 272.733 367.985,273.435 367.806,273.562 367.474 C 273.670 367.193,274.479 366.866,275.361 366.748 C 276.243 366.630,277.113 366.266,277.295 365.941 C 277.478 365.615,278.109 365.348,278.698 365.348 C 279.287 365.348,279.857 365.118,279.965 364.836 C 280.073 364.555,280.929 364.131,281.866 363.895 C 282.804 363.659,283.676 363.296,283.804 363.089 C 283.932 362.881,284.541 362.712,285.156 362.712 C 285.804 362.712,286.367 362.474,286.493 362.147 C 286.619 361.819,287.182 361.582,287.834 361.582 C 288.452 361.582,289.389 361.243,289.916 360.829 C 290.443 360.414,291.280 360.075,291.776 360.075 C 292.273 360.075,292.777 359.821,292.896 359.510 C 293.015 359.200,293.411 358.945,293.775 358.945 C 294.139 358.945,294.868 358.606,295.395 358.192 C 295.921 357.778,296.712 357.439,297.152 357.439 C 297.592 357.439,298.050 357.185,298.169 356.874 C 298.288 356.563,298.637 356.309,298.945 356.309 C 299.253 356.309,299.935 355.970,300.462 355.556 C 300.989 355.141,301.651 354.802,301.934 354.802 C 302.217 354.802,302.448 354.548,302.448 354.237 C 302.448 353.843,302.846 353.672,303.766 353.672 C 304.654 353.672,305.085 353.498,305.085 353.137 C 305.085 352.843,305.605 352.488,306.240 352.348 C 306.876 352.209,307.487 351.856,307.599 351.565 C 307.710 351.274,308.038 351.036,308.327 351.036 C 308.615 351.036,308.851 350.795,308.851 350.501 C 308.851 350.206,309.371 349.851,310.007 349.712 C 310.642 349.572,311.253 349.220,311.365 348.929 C 311.477 348.638,311.789 348.399,312.059 348.399 C 312.688 348.399,315.631 346.482,315.631 346.072 C 315.631 345.902,315.885 345.763,316.196 345.763 C 316.507 345.763,316.761 345.527,316.761 345.239 C 316.761 344.950,317.169 344.612,317.669 344.487 C 318.168 344.361,319.188 343.665,319.936 342.939 C 320.683 342.213,321.461 341.620,321.664 341.620 C 321.867 341.620,322.034 341.365,322.034 341.055 C 322.034 340.701,322.391 340.490,322.987 340.490 C 323.512 340.490,324.038 340.235,324.158 339.925 C 324.277 339.614,324.609 339.360,324.896 339.360 C 325.183 339.360,325.629 339.021,325.888 338.606 C 326.147 338.192,326.572 337.853,326.833 337.853 C 327.094 337.853,327.307 337.599,327.307 337.288 C 327.307 336.977,327.494 336.723,327.723 336.723 C 329.075 336.723,362.712 303.127,362.712 301.777 C 362.712 301.569,362.966 301.301,363.277 301.182 C 363.588 301.063,363.842 300.706,363.842 300.388 C 363.842 300.071,364.083 299.812,364.377 299.812 C 364.671 299.812,365.026 299.292,365.166 298.657 C 365.305 298.021,365.903 296.962,366.493 296.303 C 369.734 292.685,370.621 291.588,370.621 291.201 C 370.621 290.965,370.876 290.772,371.186 290.772 C 371.497 290.772,371.751 290.513,371.751 290.195 C 371.751 289.878,371.995 289.525,372.293 289.411 C 372.591 289.296,372.941 288.720,373.071 288.130 C 373.200 287.540,373.550 286.856,373.847 286.609 C 374.145 286.362,374.388 286.005,374.388 285.814 C 374.388 285.434,375.897 283.187,376.399 282.819 C 376.735 282.574,377.591 281.171,377.982 280.226 C 378.881 278.052,379.651 276.774,380.320 276.347 C 380.579 276.181,380.791 275.636,380.791 275.136 C 380.791 274.612,381.110 274.055,381.544 273.823 C 382.028 273.564,382.298 273.034,382.298 272.343 C 382.298 271.734,382.543 271.173,382.863 271.050 C 383.173 270.931,383.427 270.410,383.427 269.893 C 383.427 269.339,383.736 268.788,384.181 268.550 C 384.664 268.291,384.934 267.761,384.934 267.070 C 384.934 266.461,385.179 265.900,385.499 265.777 C 385.822 265.653,386.064 265.091,386.064 264.463 C 386.064 263.681,386.281 263.308,386.817 263.168 C 387.359 263.026,387.571 262.654,387.571 261.846 C 387.571 261.193,387.808 260.630,388.136 260.504 C 388.446 260.385,388.701 259.858,388.701 259.334 C 388.701 258.809,389.040 258.041,389.454 257.627 C 389.920 257.161,390.207 256.372,390.207 255.556 C 390.207 254.635,390.378 254.237,390.772 254.237 C 391.154 254.237,391.337 253.855,391.337 253.055 C 391.337 252.404,391.603 251.678,391.927 251.441 C 392.252 251.203,392.615 250.253,392.736 249.328 C 392.856 248.403,393.184 247.510,393.464 247.345 C 393.784 247.156,393.974 246.344,393.974 245.163 C 393.974 243.580,394.078 243.299,394.633 243.392 C 395.180 243.484,395.311 243.165,395.406 241.506 C 395.482 240.194,395.708 239.437,396.066 239.300 C 396.463 239.147,396.610 238.433,396.610 236.657 C 396.610 234.421,396.669 234.243,397.341 234.456 C 398.020 234.672,398.070 234.494,398.046 231.939 C 398.024 229.620,398.116 229.198,398.634 229.243 C 399.155 229.287,399.247 228.824,399.247 226.135 C 399.247 224.280,399.402 222.976,399.623 222.976 C 399.872 222.976,400.000 210.044,400.000 184.934 C 400.000 159.824,399.872 146.893,399.623 146.893 C 399.406 146.893,399.247 145.715,399.247 144.114 C 399.247 142.103,399.091 141.206,398.682 140.866 C 398.289 140.541,398.109 139.635,398.090 137.901 C 398.072 136.157,397.966 135.632,397.740 136.158 C 397.463 136.802,397.413 136.816,397.390 136.252 C 397.375 135.890,397.222 135.593,397.050 135.593 C 396.877 135.593,396.736 135.332,396.736 135.012 C 396.736 134.646,396.957 134.507,397.332 134.636 C 397.802 134.798,397.789 134.733,397.269 134.329 C 396.833 133.989,396.610 133.295,396.610 132.275 C 396.610 131.381,396.397 130.608,396.102 130.433 C 395.822 130.267,395.488 129.219,395.360 128.103 C 395.232 126.987,394.867 125.787,394.550 125.437 C 394.233 125.086,393.974 124.415,393.974 123.946 C 393.974 123.476,393.730 122.642,393.431 122.092 C 393.133 121.542,392.789 120.474,392.668 119.718 C 392.547 118.962,392.197 118.136,391.892 117.883 C 391.587 117.629,391.337 116.868,391.337 116.190 C 391.337 115.443,391.115 114.873,390.772 114.741 C 390.421 114.607,390.207 114.033,390.207 113.225 C 390.207 111.555,389.884 110.734,389.225 110.734 C 388.877 110.734,388.701 110.292,388.701 109.416 C 388.701 108.496,388.530 108.098,388.136 108.098 C 387.772 108.098,387.568 107.728,387.562 107.062 C 387.558 106.492,387.222 105.603,386.817 105.085 C 386.412 104.567,386.077 103.774,386.072 103.323 C 386.068 102.871,385.810 102.248,385.499 101.937 C 385.188 101.626,384.934 101.129,384.934 100.831 C 384.934 100.533,384.595 99.859,384.181 99.332 C 383.766 98.806,383.427 98.125,383.427 97.821 C 383.427 97.517,383.173 97.056,382.863 96.798 C 382.552 96.541,382.298 96.034,382.298 95.673 C 382.298 95.312,381.959 94.586,381.544 94.059 C 381.130 93.532,380.791 92.937,380.791 92.736 C 380.791 92.535,380.537 92.160,380.226 91.902 C 379.915 91.644,379.661 91.156,379.661 90.817 C 379.661 90.477,379.322 89.988,378.908 89.730 C 378.493 89.471,378.154 88.916,378.154 88.497 C 378.154 88.078,377.900 87.638,377.589 87.519 C 377.279 87.399,377.024 87.081,377.024 86.811 C 377.024 86.182,375.107 83.239,374.698 83.239 C 374.527 83.239,374.388 83.077,374.388 82.879 C 374.388 82.341,372.767 80.056,371.652 79.023 C 371.114 78.524,370.560 77.666,370.422 77.115 C 370.284 76.564,369.933 75.917,369.643 75.676 C 369.352 75.435,369.115 75.004,369.115 74.718 C 369.115 74.433,368.861 74.200,368.550 74.200 C 368.239 74.200,367.985 73.876,367.985 73.481 C 367.985 73.086,366.798 71.533,365.348 70.030 C 363.898 68.527,362.712 67.103,362.712 66.866 C 362.712 66.628,362.445 66.105,362.119 65.703 C 361.793 65.301,361.651 65.226,361.803 65.537 C 361.965 65.869,361.938 65.972,361.736 65.788 C 361.396 65.476,361.343 65.304,361.252 64.218 C 361.226 63.908,360.951 63.653,360.640 63.653 C 360.330 63.653,360.075 63.408,360.075 63.107 C 360.075 62.807,359.861 62.425,359.598 62.260 C 359.336 62.094,358.700 61.428,358.186 60.779 C 357.671 60.130,356.829 59.071,356.313 58.425 C 355.797 57.779,355.226 57.250,355.043 57.250 C 354.860 57.250,354.921 57.505,355.179 57.815 C 356.387 59.271,354.965 58.106,352.384 55.525 C 349.804 52.945,348.638 51.523,350.094 52.731 C 351.699 54.063,350.296 52.276,347.692 49.672 C 345.087 47.067,343.301 45.664,344.633 47.269 C 345.441 48.243,344.643 47.884,343.673 46.838 C 342.534 45.609,342.464 45.204,343.558 46.175 C 344.124 46.677,344.314 46.728,344.191 46.344 C 344.019 45.806,342.599 44.806,341.000 44.098 C 340.556 43.901,340.132 43.602,340.058 43.433 C 339.867 42.994,337.579 41.431,337.128 41.431 C 336.920 41.431,335.571 40.287,334.130 38.889 C 331.045 35.894,328.574 33.767,327.945 33.565 C 327.698 33.486,326.789 32.850,325.925 32.153 C 325.062 31.456,324.105 30.885,323.800 30.885 C 323.494 30.885,323.157 30.656,323.049 30.376 C 322.942 30.097,321.366 29.131,319.548 28.230 C 317.729 27.329,315.638 25.969,314.900 25.207 C 313.299 23.553,283.690 8.663,282.003 8.663 C 281.440 8.663,280.979 8.493,280.979 8.286 C 280.979 8.079,280.513 7.909,279.944 7.908 C 279.374 7.907,277.570 7.229,275.934 6.401 C 274.298 5.574,272.658 4.896,272.289 4.896 C 271.919 4.896,271.393 4.682,271.119 4.421 C 269.810 3.170,268.347 2.591,265.998 2.395 C 264.405 2.263,263.086 1.919,262.445 1.469 C 261.883 1.075,261.163 0.753,260.844 0.753 C 260.525 0.753,260.264 0.584,260.264 0.377 C 260.264 0.129,251.412 0.000,234.463 0.000 C 220.273 0.000,208.663 0.136,208.663 0.301 M3.118 6.497 C 2.332 7.514,2.218 7.902,2.768 7.691 C 3.069 7.575,3.401 7.154,3.506 6.754 C 3.727 5.908,3.625 5.841,3.118 6.497 M0.471 10.419 C -0.063 10.634,-0.177 11.676,0.333 11.676 C 0.516 11.676,0.754 11.337,0.862 10.923 C 0.971 10.508,1.033 10.183,1.001 10.199 C 0.968 10.216,0.730 10.314,0.471 10.419 M352.533 55.170 C 353.653 56.304,354.647 57.155,354.741 57.060 C 354.970 56.832,351.326 53.129,350.860 53.117 C 350.660 53.112,351.413 54.035,352.533 55.170 M277.966 90.998 C 279.934 91.304,282.078 91.802,282.731 92.105 C 283.384 92.408,284.108 92.655,284.339 92.655 C 285.076 92.655,290.894 95.632,292.634 96.898 C 300.178 102.390,304.846 110.110,306.417 119.694 C 307.376 125.547,307.215 235.683,306.240 239.944 C 305.212 244.437,303.563 249.204,302.859 249.718 C 302.717 249.821,302.111 250.753,301.514 251.789 C 298.259 257.430,289.622 263.960,282.486 266.175 C 279.474 267.110,155.649 267.407,153.441 266.485 C 152.689 266.171,151.795 265.913,151.455 265.913 C 151.115 265.913,150.246 265.598,149.524 265.213 C 148.802 264.827,147.787 264.382,147.269 264.224 C 146.751 264.065,145.623 263.465,144.762 262.889 C 143.901 262.314,142.864 261.738,142.457 261.609 C 140.002 260.830,133.533 253.009,131.374 248.211 C 130.768 246.864,130.106 245.420,129.902 245.001 C 128.272 241.650,128.300 242.720,128.161 179.096 C 128.041 124.516,128.086 118.601,128.639 116.384 C 132.722 100.004,143.553 91.735,162.335 90.659 C 170.580 90.186,274.712 90.491,277.966 90.998 M383.051 97.785 C 383.051 98.095,382.881 98.245,382.674 98.117 C 382.467 97.989,382.298 97.630,382.298 97.319 C 382.298 97.008,382.467 96.859,382.674 96.987 C 382.881 97.115,383.051 97.474,383.051 97.785 M156.309 102.335 C 155.791 102.428,154.146 103.078,152.654 103.779 C 146.749 106.554,143.126 110.159,140.932 115.443 C 139.189 119.638,139.230 118.335,139.340 165.348 C 139.507 236.651,139.707 242.536,142.038 244.444 C 142.164 244.548,142.529 245.141,142.848 245.763 C 143.354 246.749,144.956 248.463,147.917 251.186 C 149.455 252.600,153.831 254.588,156.685 255.169 C 161.035 256.053,274.402 256.035,278.225 255.149 C 284.894 253.604,290.471 249.057,293.506 242.691 L 295.094 239.360 295.345 180.979 C 295.507 143.569,295.465 121.801,295.230 120.378 C 294.087 113.471,287.786 105.939,281.272 103.695 C 280.389 103.391,279.428 102.944,279.135 102.701 C 278.615 102.269,158.668 101.912,156.309 102.335 M195.857 137.241 C 199.362 138.947,200.029 139.333,204.707 142.371 C 206.779 143.716,208.814 145.004,209.228 145.233 C 209.642 145.461,212.269 147.109,215.066 148.896 C 217.863 150.682,220.998 152.660,222.034 153.291 C 223.070 153.923,225.054 155.157,226.443 156.033 C 227.832 156.910,231.307 159.039,234.164 160.764 C 244.337 166.907,250.471 171.048,250.471 171.773 C 250.471 171.910,250.937 172.682,251.507 173.488 C 252.486 174.874,252.542 175.177,252.536 179.096 C 252.526 185.177,251.804 186.178,243.503 191.615 C 240.810 193.378,238.147 195.139,237.586 195.527 C 237.025 195.916,236.472 196.234,236.358 196.234 C 236.244 196.234,235.306 196.827,234.275 197.552 C 233.243 198.277,232.290 198.870,232.155 198.870 C 232.021 198.870,230.487 199.845,228.745 201.036 C 224.927 203.648,223.263 204.734,220.851 206.188 C 217.570 208.166,214.880 209.960,214.752 210.256 C 214.683 210.416,214.459 210.546,214.253 210.546 C 214.048 210.546,212.535 211.478,210.890 212.618 C 209.245 213.757,207.741 214.689,207.547 214.689 C 207.353 214.689,207.058 214.907,206.893 215.174 C 206.727 215.440,205.021 216.702,203.101 217.978 C 194.032 224.006,189.000 224.772,183.900 220.900 C 179.062 217.226,179.284 219.189,179.284 180.223 C 179.284 143.518,179.312 143.038,181.557 140.050 C 185.150 135.268,189.891 134.337,195.857 137.241 M245.386 375.141 C 245.258 375.348,244.697 375.501,244.140 375.480 L 243.126 375.443 244.068 375.141 C 245.405 374.713,245.651 374.713,245.386 375.141 " stroke="none" fill="#0d212a" fill-rule="evenodd"></path><path id="path3" d="M11.305 0.493 C 11.301 0.937,11.136 1.076,10.829 0.892 C 10.556 0.727,10.594 0.899,10.920 1.300 C 11.439 1.940,11.418 1.972,10.637 1.724 C 9.999 1.521,9.793 1.605,9.793 2.068 C 9.793 2.405,9.630 2.580,9.430 2.457 C 9.044 2.218,7.533 3.533,7.533 4.108 C 7.533 4.296,7.874 4.360,8.292 4.251 C 8.884 4.096,8.998 4.191,8.808 4.684 C 8.674 5.035,8.327 5.225,8.030 5.111 C 7.721 4.992,7.595 5.070,7.734 5.294 C 8.072 5.841,7.202 6.780,6.357 6.780 C 5.405 6.780,5.465 6.247,6.497 5.527 C 6.963 5.202,7.142 4.927,6.893 4.916 C 5.902 4.873,4.422 6.666,5.267 6.887 C 5.685 6.996,6.026 7.384,6.026 7.749 C 6.026 8.113,5.916 8.301,5.781 8.167 C 5.646 8.032,5.336 8.195,5.091 8.530 C 4.681 9.090,4.645 9.090,4.645 8.524 C 4.645 8.186,4.787 7.910,4.959 7.910 C 5.132 7.910,5.273 7.740,5.273 7.533 C 5.273 7.326,5.019 7.156,4.708 7.156 C 4.397 7.156,4.143 7.349,4.143 7.584 C 4.143 7.819,3.719 8.404,3.202 8.884 C 2.661 9.385,2.260 10.175,2.260 10.739 C 2.260 11.297,2.098 11.620,1.883 11.488 C 1.676 11.360,1.507 11.420,1.507 11.622 C 1.507 11.825,1.718 12.075,1.977 12.180 C 2.339 12.326,2.334 12.377,1.955 12.400 C 1.681 12.416,1.582 12.623,1.731 12.864 C 1.898 13.135,1.834 13.197,1.562 13.029 C 1.134 12.764,-0.255 13.807,0.080 14.141 C 0.173 14.234,0.675 14.346,1.196 14.389 C 2.448 14.493,2.699 16.746,1.494 17.062 C 1.017 17.186,0.753 17.067,0.753 16.726 C 0.753 16.434,0.584 16.196,0.377 16.196 C -0.397 16.196,-0.115 142.242,0.659 142.581 C 1.022 142.739,1.445 142.842,1.601 142.809 C 2.133 142.697,1.883 143.163,0.942 144.035 C 0.019 144.889,-0.000 145.022,-0.000 150.451 C 0.000 156.127,0.360 157.259,1.292 154.512 C 1.514 153.859,1.965 153.107,2.295 152.840 C 2.626 152.573,3.453 151.422,4.133 150.282 C 4.814 149.143,5.899 147.590,6.546 146.830 C 7.192 146.071,8.315 144.666,9.040 143.710 C 10.263 142.095,12.976 139.558,14.900 138.230 C 19.613 134.975,24.322 132.339,26.274 131.861 C 27.049 131.672,28.192 131.346,28.814 131.137 C 30.284 130.643,32.817 130.028,35.405 129.537 C 36.544 129.321,38.199 128.985,39.083 128.790 C 43.649 127.786,58.143 129.720,60.235 131.613 C 60.594 131.938,61.298 132.206,61.800 132.210 C 62.301 132.214,63.898 133.062,65.348 134.096 C 66.798 135.129,68.536 136.329,69.209 136.763 C 69.882 137.196,70.433 137.730,70.433 137.948 C 70.433 138.167,71.106 138.967,71.929 139.726 C 73.653 141.318,73.727 141.752,73.117 146.704 C 72.887 148.569,72.724 151.620,72.753 153.484 L 72.807 156.874 73.078 152.335 C 73.226 149.839,73.454 147.461,73.584 147.052 C 73.714 146.642,73.975 144.387,74.164 142.040 C 74.352 139.692,74.692 137.587,74.918 137.361 C 75.144 137.134,75.330 136.132,75.330 135.134 C 75.330 133.390,76.325 129.016,77.245 126.714 C 77.487 126.108,77.821 125.019,77.985 124.294 C 78.677 121.247,79.565 118.401,80.066 117.622 C 80.361 117.163,80.603 116.454,80.603 116.048 C 80.603 115.641,80.867 115.043,81.191 114.720 C 81.514 114.397,81.878 113.522,81.999 112.777 C 82.119 112.032,82.448 111.334,82.729 111.226 C 83.017 111.116,83.239 110.483,83.239 109.771 C 83.239 109.079,83.463 108.376,83.737 108.211 C 84.200 107.931,84.997 106.409,86.362 103.202 C 88.194 98.897,89.865 95.551,90.375 95.168 C 90.697 94.925,91.355 93.964,91.837 93.032 C 93.066 90.657,94.180 88.852,95.386 87.277 C 95.956 86.534,96.422 85.830,96.422 85.713 C 96.422 85.596,96.989 84.695,97.683 83.711 C 98.376 82.726,99.049 81.624,99.177 81.262 C 99.306 80.899,99.586 80.603,99.800 80.603 C 100.014 80.603,100.188 80.367,100.188 80.078 C 100.188 79.789,100.443 79.456,100.753 79.336 C 101.064 79.217,101.318 78.885,101.318 78.599 C 101.318 78.312,101.784 77.579,102.354 76.969 C 102.924 76.359,104.068 75.030,104.896 74.017 C 105.725 73.003,106.742 71.815,107.156 71.378 C 107.571 70.940,108.573 69.616,109.385 68.436 C 110.196 67.256,110.988 66.290,111.144 66.290 C 111.537 66.290,114.501 63.322,114.501 62.929 C 114.501 62.754,114.882 62.358,115.348 62.050 C 115.815 61.742,117.739 59.985,119.625 58.146 C 123.361 54.502,124.957 53.107,125.392 53.107 C 125.547 53.107,125.894 52.695,126.164 52.191 C 126.434 51.686,127.128 51.078,127.707 50.838 C 128.286 50.598,128.851 50.163,128.963 49.871 C 129.075 49.580,129.406 49.341,129.699 49.341 C 129.993 49.341,130.321 49.002,130.429 48.588 C 130.560 48.089,130.943 47.834,131.563 47.834 C 132.078 47.834,132.597 47.580,132.716 47.269 C 132.835 46.959,133.193 46.704,133.510 46.704 C 133.827 46.704,134.087 46.462,134.087 46.165 C 134.087 45.868,134.468 45.506,134.934 45.361 C 135.400 45.215,135.866 44.991,135.970 44.863 C 136.073 44.735,136.879 44.142,137.759 43.545 C 138.639 42.947,139.360 42.312,139.360 42.133 C 139.360 41.954,139.699 41.808,140.113 41.808 C 140.527 41.808,141.205 41.469,141.620 41.055 C 142.034 40.640,142.487 40.301,142.626 40.301 C 142.765 40.301,143.190 40.020,143.570 39.676 C 144.398 38.926,145.589 38.214,146.957 37.650 C 147.510 37.422,148.055 36.993,148.169 36.697 C 148.283 36.401,148.678 36.153,149.047 36.148 C 149.416 36.142,150.383 35.633,151.197 35.018 C 152.011 34.402,152.962 33.898,153.312 33.898 C 153.661 33.898,154.378 33.559,154.905 33.145 C 155.432 32.731,155.972 32.392,156.106 32.392 C 156.240 32.392,157.061 32.078,157.930 31.694 C 158.799 31.310,159.765 30.884,160.075 30.747 C 160.386 30.611,161.379 30.081,162.283 29.571 C 163.186 29.061,164.502 28.535,165.207 28.403 C 165.912 28.271,166.614 27.953,166.766 27.696 C 167.053 27.213,175.234 24.482,176.395 24.482 C 176.756 24.482,177.426 24.246,177.885 23.958 C 178.344 23.670,179.521 23.321,180.500 23.183 C 181.479 23.045,182.373 22.782,182.486 22.599 C 182.599 22.416,183.493 22.161,184.472 22.033 C 185.451 21.905,186.930 21.570,187.759 21.288 C 188.588 21.007,190.589 20.663,192.208 20.523 C 193.826 20.384,195.605 20.033,196.162 19.742 C 196.719 19.451,197.514 19.207,197.928 19.199 C 198.343 19.192,199.011 18.936,199.413 18.632 C 199.815 18.328,200.512 18.079,200.963 18.079 C 201.413 18.079,202.213 17.740,202.739 17.326 C 203.266 16.911,203.797 16.573,203.919 16.573 C 204.634 16.573,207.924 13.726,208.421 12.677 C 209.943 9.470,209.844 2.658,208.262 1.680 C 208.068 1.560,207.910 1.133,207.910 0.731 C 207.910 0.116,207.641 0.000,206.215 0.000 C 205.004 0.000,204.520 0.152,204.520 0.534 C 204.520 0.827,204.308 1.140,204.049 1.230 C 203.476 1.428,201.883 0.756,201.883 0.316 C 201.883 -0.403,13.878 -0.061,13.317 0.659 C 12.829 1.287,12.815 1.287,13.034 0.659 C 13.292 -0.083,12.598 -0.261,12.301 0.471 C 12.157 0.825,12.011 0.802,11.711 0.377 C 11.368 -0.108,11.310 -0.091,11.305 0.493 M14.218 2.798 C 14.218 3.455,14.023 3.698,13.522 3.660 C 12.678 3.597,12.215 2.637,13.028 2.637 C 13.345 2.637,13.499 2.467,13.371 2.260 C 13.243 2.053,13.381 1.883,13.678 1.883 C 13.999 1.883,14.218 2.255,14.218 2.798 M11.567 3.462 C 11.316 3.620,10.823 3.660,10.470 3.550 C 9.981 3.398,9.864 3.537,9.979 4.133 C 10.064 4.572,9.971 4.818,9.767 4.692 C 9.567 4.569,9.501 4.310,9.621 4.117 C 9.740 3.924,9.460 3.766,8.999 3.766 C 7.978 3.766,8.358 3.294,9.520 3.118 C 9.981 3.048,10.412 2.833,10.479 2.639 C 10.548 2.438,10.905 2.478,11.311 2.731 C 11.826 3.053,11.897 3.255,11.567 3.462 M194.539 4.520 C 194.539 4.981,193.783 5.105,190.428 5.192 C 186.446 5.296,185.320 5.043,185.863 4.164 C 186.296 3.464,194.539 3.802,194.539 4.520 M208.546 10.829 C 208.451 11.191,208.374 10.895,208.374 10.169 C 208.374 9.444,208.451 9.148,208.546 9.510 C 208.641 9.873,208.641 10.466,208.546 10.829 M7.533 13.070 C 7.533 13.827,7.424 13.978,7.106 13.660 C 6.872 13.425,6.782 12.968,6.906 12.643 C 7.251 11.744,7.533 11.936,7.533 13.070 M203.013 12.429 C 203.452 12.713,203.342 12.796,202.520 12.800 C 201.910 12.804,201.561 12.647,201.695 12.429 C 201.984 11.962,202.290 11.962,203.013 12.429 M0.000 15.254 C 0.000 15.565,0.264 15.819,0.587 15.819 C 0.910 15.819,1.079 15.664,0.962 15.475 C 0.844 15.285,0.962 15.044,1.222 14.939 C 1.482 14.835,1.314 14.735,0.847 14.719 C 0.332 14.701,0.000 14.911,0.000 15.254 M6.403 16.218 C 6.403 16.990,5.487 17.223,5.075 16.556 C 4.774 16.070,5.610 14.997,6.069 15.281 C 6.253 15.394,6.403 15.816,6.403 16.218 M191.055 19.098 C 190.589 19.188,189.826 19.188,189.360 19.098 C 188.894 19.008,189.275 18.935,190.207 18.935 C 191.139 18.935,191.521 19.008,191.055 19.098 M167.608 20.339 C 166.869 20.817,165.455 20.817,165.160 20.339 C 165.018 20.110,165.563 19.965,166.550 19.968 C 167.737 19.972,168.021 20.072,167.608 20.339 M182.863 20.339 C 181.808 20.792,179.661 20.792,179.661 20.339 C 179.661 20.132,180.551 19.974,181.638 19.989 C 183.091 20.008,183.416 20.101,182.863 20.339 M176.863 21.891 C 175.896 22.118,175.250 22.105,174.999 21.854 C 174.737 21.592,175.209 21.481,176.478 21.507 L 178.343 21.545 176.863 21.891 M170.545 23.788 C 170.693 24.569,168.879 25.032,167.154 24.653 L 165.947 24.388 166.843 23.663 C 167.958 22.760,170.366 22.841,170.545 23.788 M155.367 27.872 C 155.505 28.094,155.090 28.246,154.354 28.243 C 153.410 28.238,153.245 28.148,153.672 27.872 C 154.404 27.399,155.075 27.399,155.367 27.872 M161.770 27.872 C 161.909 28.096,161.500 28.233,160.757 28.211 C 159.585 28.176,159.567 28.155,160.452 27.872 C 160.970 27.706,161.426 27.553,161.466 27.533 C 161.505 27.512,161.642 27.665,161.770 27.872 M147.175 28.132 C 146.813 28.226,146.219 28.226,145.857 28.132 C 145.494 28.037,145.791 27.959,146.516 27.959 C 147.241 27.959,147.538 28.037,147.175 28.132 M159.134 29.190 C 159.134 29.397,158.583 29.620,157.910 29.685 C 156.982 29.774,156.685 29.655,156.685 29.190 C 156.685 28.726,156.982 28.606,157.910 28.696 C 158.583 28.760,159.134 28.983,159.134 29.190 M151.789 29.567 C 151.789 29.892,152.148 30.145,152.637 30.163 C 153.781 30.205,155.696 30.524,155.875 30.702 C 156.157 30.985,153.474 31.886,152.837 31.723 C 152.482 31.632,152.092 31.247,151.972 30.867 C 151.834 30.432,151.317 30.134,150.576 30.060 C 148.862 29.890,148.748 29.002,150.439 29.002 C 151.388 29.002,151.789 29.170,151.789 29.567 M145.310 31.413 C 145.124 32.711,143.879 32.658,143.879 31.352 C 143.879 30.750,143.991 30.146,144.127 30.010 C 144.562 29.575,145.427 30.601,145.310 31.413 M147.269 35.217 C 147.269 35.907,147.068 36.158,146.516 36.158 C 145.611 36.158,145.550 35.671,146.355 34.867 C 147.151 34.070,147.269 34.115,147.269 35.217 M141.996 38.462 C 141.996 38.645,141.573 38.795,141.055 38.795 C 140.169 38.795,139.850 38.430,140.323 37.957 C 140.626 37.654,141.996 38.068,141.996 38.462 M136.993 39.592 C 137.224 39.823,137.790 40.204,138.250 40.439 C 139.359 41.005,139.380 41.590,138.296 41.744 C 137.680 41.831,137.364 41.648,137.227 41.125 C 137.109 40.674,136.593 40.294,135.912 40.158 C 135.291 40.034,134.895 39.763,135.026 39.552 C 135.339 39.045,136.469 39.067,136.993 39.592 M134.586 43.562 C 134.926 43.903,134.082 44.863,133.667 44.606 C 133.148 44.285,133.274 43.315,133.836 43.315 C 134.112 43.315,134.449 43.426,134.586 43.562 M123.917 48.776 C 123.917 49.087,123.758 49.341,123.563 49.341 C 123.088 49.341,122.748 48.753,123.049 48.452 C 123.473 48.028,123.917 48.193,123.917 48.776 M119.173 49.907 C 120.093 50.604,119.188 51.066,117.655 50.681 C 116.715 50.445,116.701 50.408,117.374 49.899 C 118.245 49.239,118.290 49.239,119.173 49.907 M126.461 50.377 C 126.559 50.672,126.253 50.847,125.643 50.847 C 125.010 50.847,124.670 50.641,124.670 50.256 C 124.670 49.548,126.223 49.652,126.461 50.377 M121.092 54.049 C 121.092 54.256,120.711 54.480,120.245 54.546 C 119.662 54.629,119.397 54.474,119.397 54.049 C 119.397 53.624,119.662 53.469,120.245 53.552 C 120.711 53.618,121.092 53.842,121.092 54.049 M108.839 60.546 C 108.811 61.206,107.769 62.147,107.065 62.147 C 106.342 62.147,105.666 60.938,106.130 60.474 C 106.447 60.157,108.853 60.221,108.839 60.546 M114.878 61.017 C 114.878 61.431,114.726 61.770,114.541 61.770 C 114.118 61.770,113.723 60.791,114.025 60.489 C 114.478 60.035,114.878 60.283,114.878 61.017 M102.667 63.560 C 102.232 63.995,102.009 63.314,102.306 62.458 L 102.609 61.582 102.747 62.462 C 102.823 62.946,102.787 63.440,102.667 63.560 M111.041 64.500 C 111.172 65.190,109.476 66.111,108.820 65.706 C 108.312 65.392,108.400 64.124,108.945 63.896 C 109.828 63.527,110.915 63.840,111.041 64.500 M105.957 66.370 C 107.257 68.118,106.355 71.854,104.968 70.467 C 104.527 70.026,104.964 69.303,105.672 69.303 C 106.799 69.303,106.236 67.816,104.896 67.256 C 103.977 66.872,103.578 66.463,103.578 65.906 C 103.578 64.781,104.978 65.053,105.957 66.370 M102.729 70.527 C 102.599 71.271,102.545 71.294,102.286 70.715 C 102.123 70.352,102.124 69.589,102.287 69.020 C 102.644 67.775,102.999 68.984,102.729 70.527 M96.422 81.706 C 96.422 82.105,96.168 82.686,95.857 82.997 C 95.546 83.308,95.287 83.701,95.282 83.871 C 95.276 84.042,94.772 84.774,94.162 85.499 L 93.052 86.817 93.042 85.683 C 93.035 84.863,93.353 84.290,94.194 83.612 C 94.834 83.096,95.507 82.293,95.692 81.827 C 96.102 80.787,96.422 80.734,96.422 81.706 M92.587 82.174 C 92.410 83.380,91.525 83.509,91.525 82.329 C 91.525 81.696,91.732 81.356,92.117 81.356 C 92.509 81.356,92.667 81.631,92.587 82.174 M92.124 88.416 C 91.719 88.821,91.504 88.254,91.788 87.530 C 92.055 86.852,92.075 86.850,92.207 87.506 C 92.283 87.885,92.246 88.294,92.124 88.416 M161.864 91.428 C 163.159 91.501,165.278 91.501,166.573 91.428 C 167.867 91.354,166.808 91.294,164.218 91.294 C 161.629 91.294,160.570 91.354,161.864 91.428 M220.810 91.431 C 231.116 91.487,247.980 91.487,258.286 91.431 C 268.592 91.375,260.160 91.330,239.548 91.330 C 218.936 91.330,210.504 91.375,220.810 91.431 M88.885 92.462 C 89.445 93.138,89.128 94.162,88.358 94.162 C 87.608 94.162,87.376 93.702,87.633 92.721 C 87.884 91.761,88.242 91.687,88.885 92.462 M86.116 96.234 C 86.387 96.941,85.974 98.682,85.536 98.682 C 85.086 98.682,84.775 97.334,85.013 96.422 C 85.246 95.532,85.810 95.436,86.116 96.234 M159.045 101.589 C 159.617 101.675,160.465 101.673,160.928 101.583 C 161.391 101.494,160.923 101.423,159.887 101.426 C 158.851 101.429,158.472 101.502,159.045 101.589 M209.117 101.597 C 210.506 101.669,212.879 101.670,214.390 101.598 C 215.901 101.527,214.765 101.467,211.864 101.467 C 208.964 101.466,207.728 101.525,209.117 101.597 M235.122 101.600 C 239.628 101.660,247.001 101.660,251.507 101.600 C 256.012 101.540,252.326 101.491,243.315 101.491 C 234.303 101.491,230.617 101.540,235.122 101.600 M272.792 101.589 C 273.365 101.675,274.212 101.673,274.676 101.583 C 275.139 101.494,274.670 101.423,273.635 101.426 C 272.599 101.429,272.220 101.502,272.792 101.589 M296.798 101.436 C 296.798 101.501,297.349 102.052,298.023 102.660 L 299.247 103.766 298.140 102.542 C 297.109 101.401,296.798 101.145,296.798 101.436 M135.758 102.919 L 134.652 104.143 135.876 103.037 C 137.017 102.006,137.273 101.695,136.982 101.695 C 136.917 101.695,136.366 102.246,135.758 102.919 M84.369 103.390 C 84.369 103.908,84.200 104.331,83.992 104.331 C 83.572 104.331,83.476 103.090,83.867 102.699 C 84.282 102.284,84.369 102.404,84.369 103.390 M83.122 106.497 C 83.027 106.860,82.950 106.563,82.950 105.838 C 82.950 105.113,83.027 104.816,83.122 105.179 C 83.217 105.541,83.217 106.135,83.122 106.497 M288.701 107.721 C 289.510 108.550,290.256 109.228,290.360 109.228 C 290.464 109.228,289.886 108.550,289.077 107.721 C 288.268 106.893,287.521 106.215,287.418 106.215 C 287.314 106.215,287.891 106.893,288.701 107.721 M144.612 108.380 L 143.315 109.793 144.727 108.495 C 145.504 107.781,146.139 107.145,146.139 107.082 C 146.139 106.795,145.821 107.066,144.612 108.380 M79.473 113.168 C 79.473 113.862,77.834 115.424,77.659 114.897 C 77.587 114.683,77.797 114.240,78.124 113.912 C 78.452 113.585,78.719 113.160,78.719 112.967 C 78.719 112.775,78.889 112.618,79.096 112.618 C 79.303 112.618,79.473 112.865,79.473 113.168 M73.216 115.913 C 73.330 116.483,73.188 117.881,72.902 119.021 L 72.380 121.092 72.348 117.985 C 72.317 114.966,72.798 113.818,73.216 115.913 M76.966 118.927 C 77.325 121.171,76.553 123.050,75.935 121.438 C 75.443 120.156,75.791 117.514,76.452 117.514 C 76.610 117.514,76.842 118.150,76.966 118.927 M128.539 120.527 C 128.539 121.460,128.613 121.841,128.703 121.375 C 128.792 120.909,128.792 120.146,128.703 119.680 C 128.613 119.214,128.539 119.595,128.539 120.527 M305.951 122.787 C 305.951 123.927,306.022 124.393,306.108 123.823 C 306.194 123.253,306.194 122.321,306.108 121.751 C 306.022 121.182,305.951 121.648,305.951 122.787 M75.324 126.083 C 75.320 127.377,75.217 127.716,74.953 127.307 C 74.353 126.378,74.526 124.294,75.204 124.294 C 75.273 124.294,75.327 125.099,75.324 126.083 M54.524 127.566 C 54.164 127.660,53.486 127.663,53.018 127.573 C 52.549 127.483,52.844 127.406,53.672 127.402 C 54.501 127.398,54.884 127.471,54.524 127.566 M128.620 183.427 C 128.620 212.947,128.665 225.024,128.719 210.264 C 128.774 195.504,128.774 171.351,128.719 156.591 C 128.665 141.831,128.620 153.908,128.620 183.427 M296.217 148.023 C 296.217 156.620,296.267 160.137,296.327 155.838 C 296.388 151.540,296.388 144.506,296.327 140.207 C 296.267 135.909,296.217 139.426,296.217 148.023 M8.539 142.246 C 8.427 142.357,8.138 142.325,7.894 142.175 C 7.567 141.973,7.585 141.820,7.964 141.585 C 8.466 141.273,8.953 141.832,8.539 142.246 M6.561 142.602 C 7.467 142.949,7.285 143.352,5.838 144.206 C 5.113 144.634,4.520 145.244,4.520 145.562 C 4.520 145.879,4.350 146.139,4.143 146.139 C 3.936 146.139,3.766 146.452,3.766 146.835 C 3.766 147.218,3.427 147.922,3.013 148.399 C 2.280 149.245,2.260 149.247,2.260 148.487 C 2.260 147.668,3.376 145.288,3.861 145.072 C 4.016 145.003,4.143 144.697,4.143 144.391 C 4.143 144.085,4.313 143.940,4.520 144.068 C 4.727 144.196,4.896 143.980,4.896 143.588 C 4.896 142.447,5.392 142.153,6.561 142.602 M138.789 187.759 C 138.789 212.825,138.834 223.135,138.889 210.669 C 138.944 198.204,138.944 177.696,138.889 165.095 C 138.834 152.494,138.789 162.693,138.789 187.759 M72.471 164.783 C 72.470 168.305,72.527 169.796,72.596 168.098 C 72.666 166.399,72.666 163.517,72.597 161.695 C 72.528 159.872,72.471 161.262,72.471 164.783 M179.837 184.181 C 179.837 195.885,179.885 200.673,179.943 194.821 C 180.002 188.969,180.002 179.393,179.943 173.540 C 179.885 167.688,179.837 172.476,179.837 184.181 M72.820 176.271 C 72.820 177.825,72.886 178.460,72.967 177.684 C 73.049 176.907,73.049 175.636,72.967 174.859 C 72.886 174.082,72.820 174.718,72.820 176.271 M252.101 179.096 C 252.103 180.546,252.171 181.093,252.252 180.312 C 252.334 179.530,252.332 178.344,252.249 177.675 C 252.166 177.007,252.099 177.646,252.101 179.096 M73.274 181.733 C 73.368 183.183,73.594 185.132,73.775 186.064 C 74.358 189.057,74.225 185.595,73.623 182.109 L 73.102 179.096 73.274 181.733 M74.276 189.642 C 74.266 190.471,74.494 191.827,74.784 192.655 L 75.310 194.162 75.073 192.655 C 74.943 191.827,74.714 190.471,74.565 189.642 L 74.294 188.136 74.276 189.642 M75.735 197.414 C 75.719 197.753,75.954 198.601,76.256 199.298 C 76.946 200.886,76.958 199.901,76.271 198.117 C 75.992 197.392,75.751 197.076,75.735 197.414 M76.854 202.141 C 76.832 203.145,77.532 205.079,77.815 204.797 C 77.927 204.684,77.761 203.856,77.446 202.955 C 77.085 201.925,76.865 201.623,76.854 202.141 M295.841 220.339 C 295.841 229.350,295.891 233.037,295.951 228.531 C 296.011 224.025,296.011 216.653,295.951 212.147 C 295.891 207.641,295.841 211.328,295.841 220.339 M78.357 207.961 C 78.349 208.300,78.596 209.062,78.905 209.656 C 79.629 211.044,79.642 210.269,78.922 208.612 C 78.620 207.915,78.366 207.622,78.357 207.961 M214.878 209.261 L 213.748 210.232 214.972 209.422 C 215.645 208.976,216.196 208.538,216.196 208.449 C 216.196 208.167,216.036 208.265,214.878 209.261 M79.489 211.369 C 79.469 212.145,80.185 214.102,80.408 213.880 C 80.496 213.791,80.330 213.047,80.037 212.227 C 79.745 211.406,79.498 211.020,79.489 211.369 M180.125 213.936 C 180.125 214.661,180.203 214.958,180.297 214.595 C 180.392 214.233,180.392 213.639,180.297 213.277 C 180.203 212.914,180.125 213.211,180.125 213.936 M80.632 214.878 C 80.630 215.292,80.972 216.309,81.392 217.137 C 82.217 218.764,82.130 218.052,81.209 215.631 C 80.882 214.773,80.634 214.448,80.632 214.878 M82.112 219.231 C 82.110 219.554,82.358 220.147,82.662 220.549 C 83.382 221.501,83.389 221.089,82.677 219.723 C 82.367 219.130,82.113 218.908,82.112 219.231 M306.376 227.684 C 306.376 232.448,306.430 234.345,306.496 231.900 C 306.562 229.454,306.562 225.556,306.496 223.237 C 306.430 220.918,306.376 222.919,306.376 227.684 M83.435 222.327 C 83.667 223.539,85.527 227.593,85.749 227.371 C 85.831 227.288,85.406 226.139,84.804 224.816 C 84.201 223.493,83.602 222.156,83.471 221.846 C 83.341 221.535,83.325 221.751,83.435 222.327 M85.876 228.328 C 85.876 228.648,86.119 229.112,86.416 229.358 C 86.714 229.605,87.066 230.304,87.200 230.911 C 87.333 231.518,87.557 232.015,87.697 232.015 C 87.837 232.015,88.347 232.876,88.829 233.929 C 89.312 234.981,89.774 235.775,89.856 235.693 C 90.001 235.548,86.504 228.374,86.084 227.955 C 85.970 227.840,85.876 228.008,85.876 228.328 M90.019 236.490 C 90.019 236.751,90.273 237.220,90.584 237.530 C 91.306 238.252,91.297 237.705,90.572 236.745 C 90.261 236.335,90.019 236.223,90.019 236.490 M91.149 238.567 C 91.149 238.742,91.742 239.861,92.467 241.055 C 93.192 242.248,93.785 243.380,93.785 243.570 C 93.785 243.927,94.329 244.707,95.704 246.328 L 96.504 247.269 95.960 246.328 C 95.662 245.810,94.685 244.115,93.789 242.561 C 91.856 239.207,91.149 238.137,91.149 238.567 M291.128 247.740 L 289.831 249.153 291.243 247.855 C 292.558 246.646,292.829 246.328,292.541 246.328 C 292.478 246.328,291.842 246.963,291.128 247.740 M96.616 247.834 C 96.789 248.145,97.698 249.501,98.635 250.847 C 99.572 252.194,100.759 253.931,101.272 254.708 C 101.786 255.485,102.334 256.121,102.492 256.121 C 102.650 256.121,101.425 254.220,99.770 251.896 C 96.871 247.825,95.951 246.640,96.616 247.834 M143.503 247.952 C 143.503 248.017,144.054 248.568,144.727 249.176 L 145.951 250.282 144.845 249.058 C 143.814 247.917,143.503 247.661,143.503 247.952 M297.722 255.461 L 296.234 257.062 297.834 255.573 C 299.323 254.189,299.608 253.861,299.323 253.861 C 299.262 253.861,298.541 254.581,297.722 255.461 M188.012 256.403 C 204.102 256.457,230.543 256.457,246.769 256.403 C 262.995 256.349,249.831 256.304,217.514 256.304 C 185.198 256.304,171.922 256.349,188.012 256.403 M137.476 256.615 C 137.476 256.680,138.027 257.231,138.701 257.839 L 139.925 258.945 138.818 257.721 C 137.787 256.580,137.476 256.324,137.476 256.615 M104.331 258.532 C 104.331 258.616,104.823 259.252,105.424 259.945 C 109.748 264.936,110.734 266.128,110.734 266.368 C 110.734 266.518,111.078 266.824,111.499 267.049 C 111.919 267.274,110.552 265.416,108.460 262.919 C 104.993 258.782,104.331 258.079,104.331 258.532 M159.040 266.571 C 161.266 266.638,164.911 266.638,167.137 266.571 C 169.364 266.504,167.542 266.450,163.089 266.450 C 158.635 266.450,156.813 266.504,159.040 266.571 M208.598 266.572 C 221.302 266.627,241.980 266.627,254.549 266.572 C 267.118 266.517,256.723 266.472,231.450 266.472 C 206.177 266.472,195.894 266.517,208.598 266.572 M112.712 268.321 C 113.074 268.596,113.371 268.919,113.371 269.038 C 113.371 269.293,120.561 276.239,124.294 279.590 C 126.351 281.437,130.341 284.586,133.524 286.874 C 138.499 290.451,138.132 289.882,132.957 285.996 C 128.184 282.412,122.071 277.143,117.137 272.361 C 114.548 269.851,112.345 267.802,112.241 267.809 C 112.137 267.815,112.349 268.046,112.712 268.321 M138.121 289.963 C 138.997 290.870,142.817 293.409,143.305 293.409 C 143.513 293.409,142.554 292.651,141.174 291.726 C 139.795 290.800,138.558 289.868,138.425 289.654 C 138.293 289.440,138.019 289.266,137.816 289.266 C 137.613 289.266,137.750 289.579,138.121 289.963 M143.882 293.695 C 143.884 293.976,145.767 295.215,146.987 295.738 C 148.206 296.261,147.660 295.742,145.763 294.574 C 144.727 293.937,143.881 293.541,143.882 293.695 M148.211 296.351 C 148.719 296.901,152.224 298.749,152.409 298.564 C 152.490 298.483,151.493 297.860,150.195 297.180 C 148.897 296.499,148.004 296.126,148.211 296.351 M152.919 299.018 C 152.919 299.203,153.187 299.457,153.515 299.583 C 154.436 299.937,154.528 299.860,153.914 299.247 C 153.274 298.606,152.919 298.525,152.919 299.018 M155.365 300.184 C 155.652 300.649,159.351 302.505,159.714 302.367 C 159.868 302.308,158.903 301.713,157.569 301.044 C 156.236 300.375,155.244 299.988,155.365 300.184 M160.452 302.652 C 160.452 302.922,165.295 305.089,165.854 305.069 C 166.094 305.061,165.273 304.621,164.030 304.092 C 162.787 303.563,161.609 302.977,161.412 302.790 C 161.018 302.413,160.452 302.332,160.452 302.652 M167.021 305.662 C 167.423 305.966,168.016 306.214,168.339 306.212 C 168.662 306.211,168.441 305.957,167.848 305.647 C 166.482 304.935,166.070 304.942,167.021 305.662 M171.164 307.168 C 171.566 307.472,172.160 307.720,172.483 307.719 C 172.805 307.718,172.584 307.463,171.991 307.154 C 170.625 306.442,170.213 306.449,171.164 307.168 M174.011 308.286 C 174.529 308.582,175.292 308.824,175.706 308.823 C 176.226 308.822,176.067 308.651,175.192 308.272 C 173.576 307.570,172.775 307.580,174.011 308.286 M177.493 309.360 C 178.062 309.676,179.333 310.031,180.318 310.149 L 182.109 310.364 180.226 309.805 C 176.705 308.759,176.290 308.692,177.493 309.360 M182.840 310.935 C 183.242 311.239,184.005 311.480,184.535 311.471 C 185.334 311.458,185.240 311.362,183.992 310.912 C 182.112 310.235,181.920 310.238,182.840 310.935 M188.324 312.233 C 189.878 312.645,191.573 312.971,192.090 312.957 C 192.608 312.943,192.015 312.700,190.772 312.417 C 187.013 311.562,185.306 311.433,188.324 312.233 M195.292 313.553 C 196.328 313.859,197.853 314.089,198.682 314.064 C 200.168 314.019,200.163 314.015,198.305 313.737 C 197.269 313.583,195.744 313.353,194.915 313.226 C 193.562 313.020,193.600 313.054,195.292 313.553 M201.883 314.560 C 204.230 315.198,206.853 315.683,207.025 315.512 C 207.229 315.307,202.035 314.109,201.178 314.163 C 200.841 314.184,201.158 314.363,201.883 314.560 M208.286 316.092 C 208.804 316.317,210.075 316.877,211.111 317.336 C 212.147 317.794,213.164 318.237,213.371 318.319 C 214.357 318.709,216.573 320.263,216.573 320.565 C 216.573 320.751,216.752 320.904,216.971 320.904 C 218.274 320.904,214.764 318.513,211.014 316.846 C 209.510 316.178,208.069 315.642,207.812 315.656 C 207.555 315.670,207.768 315.866,208.286 316.092 M217.702 321.086 C 217.702 321.211,218.508 322.295,219.492 323.494 C 220.476 324.693,221.669 326.169,222.145 326.773 C 222.620 327.378,222.488 327.071,221.851 326.093 C 220.646 324.241,217.702 320.689,217.702 321.086 M222.995 328.249 C 222.987 328.456,223.253 329.134,223.586 329.755 C 223.920 330.377,224.328 331.309,224.493 331.827 C 224.736 332.587,224.797 332.624,224.809 332.015 C 224.825 331.267,223.023 327.527,222.995 328.249 M225.072 333.710 C 225.714 336.449,225.910 336.963,225.933 335.970 C 225.945 335.452,225.706 334.520,225.403 333.898 C 224.933 332.937,224.884 332.909,225.072 333.710 M226.094 341.620 C 226.091 344.308,226.167 345.023,226.331 343.852 C 226.465 342.905,226.467 341.125,226.336 339.897 C 226.144 338.081,226.099 338.403,226.094 341.620 M225.119 348.283 C 225.013 348.454,224.825 349.270,224.700 350.097 L 224.472 351.601 225.026 349.921 C 225.534 348.378,225.582 347.533,225.119 348.283 M222.653 355.233 C 222.387 355.658,222.253 356.088,222.354 356.189 C 222.455 356.291,222.735 356.005,222.976 355.556 C 223.545 354.492,223.280 354.228,222.653 355.233 M220.890 358.466 C 220.276 359.425,219.605 360.477,219.397 360.804 C 218.927 361.545,216.930 363.814,216.260 364.369 C 215.984 364.597,214.967 365.495,214.000 366.365 C 212.014 368.150,210.138 369.541,208.475 370.461 C 207.853 370.805,207.006 371.386,206.591 371.752 C 206.177 372.118,205.414 372.546,204.896 372.702 C 204.379 372.857,203.551 373.301,203.057 373.686 C 201.535 374.875,202.401 374.563,206.253 372.535 C 210.210 370.451,219.586 362.247,219.586 360.867 C 219.586 360.639,219.713 360.452,219.868 360.451 C 220.217 360.450,222.372 357.087,222.160 356.874 C 222.076 356.790,221.504 357.506,220.890 358.466 M199.906 375.173 C 199.044 376.116,199.666 376.103,200.806 375.154 C 201.410 374.650,201.514 374.419,201.130 374.432 C 200.819 374.442,200.268 374.776,199.906 375.173 M196.234 376.271 C 196.234 376.478,196.573 376.648,196.987 376.648 C 197.401 376.648,197.740 376.478,197.740 376.271 C 197.740 376.064,197.401 375.895,196.987 375.895 C 196.573 375.895,196.234 376.064,196.234 376.271 " stroke="none" fill="#778c94" fill-rule="evenodd"></path><path id="path4" d="M9.279 1.102 C 8.482 1.885,8.324 2.239,8.678 2.457 C 8.979 2.643,9.062 2.601,8.903 2.344 C 8.764 2.119,8.810 1.837,9.005 1.716 C 9.200 1.596,9.437 1.796,9.532 2.161 C 9.690 2.766,9.709 2.763,9.749 2.125 C 9.776 1.696,9.993 1.503,10.311 1.625 C 10.662 1.760,10.829 1.531,10.829 0.912 C 10.829 -0.237,10.617 -0.211,9.279 1.102 M201.883 0.316 C 201.883 0.756,203.476 1.428,204.049 1.230 C 205.104 0.866,204.507 0.000,203.202 0.000 C 202.476 0.000,201.883 0.142,201.883 0.316 M207.910 0.731 C 207.910 1.133,208.068 1.560,208.262 1.680 C 209.844 2.658,209.943 9.470,208.421 12.677 C 207.924 13.726,204.634 16.573,203.919 16.573 C 203.797 16.573,203.266 16.911,202.739 17.326 C 202.213 17.740,201.413 18.079,200.963 18.079 C 200.512 18.079,199.815 18.328,199.413 18.632 C 199.011 18.936,198.343 19.192,197.928 19.199 C 197.514 19.207,196.719 19.451,196.162 19.742 C 195.605 20.033,193.826 20.384,192.208 20.523 C 190.589 20.663,188.588 21.007,187.759 21.288 C 186.930 21.570,185.451 21.905,184.472 22.033 C 183.493 22.161,182.599 22.416,182.486 22.599 C 182.373 22.782,181.479 23.045,180.500 23.183 C 179.521 23.321,178.344 23.670,177.885 23.958 C 177.426 24.246,176.756 24.482,176.395 24.482 C 175.234 24.482,167.053 27.213,166.766 27.696 C 166.614 27.953,165.912 28.271,165.207 28.403 C 164.502 28.535,163.186 29.061,162.283 29.571 C 161.379 30.081,160.386 30.611,160.075 30.747 C 159.765 30.884,158.799 31.310,157.930 31.694 C 157.061 32.078,156.240 32.392,156.106 32.392 C 155.972 32.392,155.432 32.731,154.905 33.145 C 154.378 33.559,153.661 33.898,153.312 33.898 C 152.962 33.898,152.011 34.402,151.197 35.018 C 150.383 35.633,149.416 36.142,149.047 36.148 C 148.678 36.153,148.283 36.401,148.169 36.697 C 148.055 36.993,147.510 37.422,146.957 37.650 C 145.589 38.214,144.398 38.926,143.570 39.676 C 143.190 40.020,142.765 40.301,142.626 40.301 C 142.487 40.301,142.034 40.640,141.620 41.055 C 141.205 41.469,140.527 41.808,140.113 41.808 C 139.699 41.808,139.360 41.954,139.360 42.133 C 139.360 42.312,138.639 42.947,137.759 43.545 C 136.879 44.142,136.073 44.735,135.970 44.863 C 135.866 44.991,135.400 45.215,134.934 45.361 C 134.468 45.506,134.087 45.868,134.087 46.165 C 134.087 46.462,133.827 46.704,133.510 46.704 C 133.193 46.704,132.835 46.959,132.716 47.269 C 132.597 47.580,132.078 47.834,131.563 47.834 C 130.943 47.834,130.560 48.089,130.429 48.588 C 130.321 49.002,129.993 49.341,129.699 49.341 C 129.406 49.341,129.075 49.580,128.963 49.871 C 128.851 50.163,128.286 50.598,127.707 50.838 C 127.128 51.078,126.434 51.686,126.164 52.191 C 125.894 52.695,125.547 53.107,125.392 53.107 C 124.957 53.107,123.361 54.502,119.625 58.146 C 117.739 59.985,115.815 61.742,115.348 62.050 C 114.882 62.358,114.501 62.754,114.501 62.929 C 114.501 63.322,111.537 66.290,111.144 66.290 C 110.988 66.290,110.196 67.256,109.385 68.436 C 108.573 69.616,107.571 70.940,107.156 71.378 C 106.742 71.815,105.725 73.003,104.896 74.017 C 104.068 75.030,102.924 76.359,102.354 76.969 C 101.784 77.579,101.318 78.312,101.318 78.599 C 101.318 78.885,101.064 79.217,100.753 79.336 C 100.443 79.456,100.188 79.771,100.188 80.038 C 100.188 80.304,99.934 80.620,99.623 80.739 C 99.313 80.858,99.058 81.153,99.058 81.393 C 99.058 81.634,98.465 82.657,97.740 83.666 C 97.015 84.675,96.422 85.596,96.422 85.713 C 96.422 85.830,95.956 86.534,95.386 87.277 C 94.180 88.852,93.066 90.657,91.837 93.032 C 91.355 93.964,90.697 94.925,90.375 95.168 C 89.865 95.551,88.194 98.897,86.362 103.202 C 84.997 106.409,84.200 107.931,83.737 108.211 C 83.463 108.376,83.239 109.079,83.239 109.771 C 83.239 110.483,83.017 111.116,82.729 111.226 C 82.448 111.334,82.119 112.032,81.999 112.777 C 81.878 113.522,81.514 114.397,81.191 114.720 C 80.867 115.043,80.603 115.641,80.603 116.048 C 80.603 116.454,80.361 117.163,80.066 117.622 C 79.565 118.401,78.677 121.247,77.985 124.294 C 77.821 125.019,77.487 126.108,77.245 126.714 C 76.325 129.016,75.330 133.390,75.330 135.134 C 75.330 136.132,75.144 137.135,74.918 137.361 C 74.691 137.588,74.363 139.528,74.188 141.674 C 74.013 143.819,73.659 146.846,73.400 148.399 C 73.093 150.249,72.922 155.710,72.906 164.218 C 72.881 177.473,72.855 177.096,74.599 189.266 C 75.336 194.410,76.200 198.416,77.639 203.359 C 78.026 204.689,78.343 206.084,78.343 206.459 C 78.343 206.834,78.582 207.780,78.874 208.561 C 79.167 209.342,79.839 211.337,80.368 212.994 C 81.673 217.085,82.416 219.174,83.068 220.584 C 83.369 221.237,83.616 221.882,83.616 222.017 C 83.616 225.087,100.760 255.110,103.950 257.627 C 104.082 257.731,106.020 260.019,108.258 262.712 C 114.297 269.979,122.464 277.766,131.827 285.183 C 134.075 286.964,137.403 289.266,137.731 289.266 C 137.875 289.266,138.343 289.591,138.770 289.989 C 139.846 290.989,147.237 295.587,150.659 297.386 C 152.213 298.202,153.569 298.962,153.672 299.075 C 154.023 299.458,165.129 304.697,165.639 304.721 C 165.790 304.728,166.591 305.061,167.420 305.461 C 168.249 305.862,169.181 306.196,169.492 306.204 C 169.802 306.213,170.499 306.450,171.040 306.733 C 171.581 307.015,174.039 307.861,176.501 308.614 C 178.964 309.366,181.742 310.227,182.674 310.525 C 185.727 311.503,192.821 312.908,199.812 313.918 C 213.777 315.937,221.248 321.534,225.226 332.957 C 227.813 340.387,225.226 354.753,220.362 359.965 C 219.935 360.423,219.586 360.906,219.586 361.040 C 219.586 362.265,209.902 370.613,206.253 372.535 C 203.636 373.912,202.607 374.388,202.245 374.388 C 202.008 374.388,201.383 374.727,200.856 375.141 C 200.329 375.556,199.413 375.895,198.819 375.895 C 198.226 375.895,197.740 376.064,197.740 376.271 C 197.740 376.478,198.249 376.648,198.870 376.648 C 199.492 376.648,200.000 376.478,200.000 376.271 C 200.000 376.064,200.403 375.895,200.896 375.895 C 201.388 375.895,201.995 375.649,202.244 375.349 C 202.493 375.049,203.276 374.612,203.985 374.378 C 204.693 374.144,205.273 373.818,205.273 373.653 C 205.273 373.487,205.776 373.252,206.391 373.129 C 207.006 373.006,207.811 372.634,208.180 372.303 C 208.549 371.972,209.990 370.863,211.383 369.838 C 229.976 356.161,232.437 332.198,216.568 319.347 C 212.624 316.152,208.222 314.565,199.527 313.202 C 188.754 311.512,176.309 308.490,172.316 306.593 C 171.902 306.396,170.843 305.976,169.962 305.660 C 165.286 303.980,162.339 302.709,158.092 300.543 C 156.898 299.933,155.725 299.435,155.486 299.435 C 155.246 299.435,154.782 299.203,154.455 298.920 C 154.128 298.637,152.548 297.709,150.944 296.858 C 145.226 293.825,133.040 285.535,127.895 281.178 C 126.665 280.137,125.394 279.070,125.071 278.807 C 120.383 275.006,111.364 265.760,107.165 260.452 C 106.346 259.416,105.576 258.484,105.454 258.380 C 105.333 258.277,104.734 257.514,104.123 256.686 C 102.847 254.954,102.827 254.928,101.275 252.919 C 100.150 251.462,97.758 248.039,96.987 246.782 C 95.141 243.772,92.895 239.747,90.008 234.275 C 88.474 231.367,85.358 224.523,83.935 220.937 C 81.039 213.638,80.748 212.725,77.803 201.695 C 75.001 191.200,73.749 180.900,73.544 166.667 C 73.301 149.756,75.112 136.214,79.237 124.119 C 79.522 123.283,80.050 121.667,80.411 120.527 C 86.049 102.710,98.734 81.664,112.975 66.501 C 118.343 60.785,125.594 53.900,128.489 51.768 C 129.036 51.365,130.901 49.932,132.633 48.582 C 134.365 47.233,136.714 45.498,137.853 44.728 C 138.992 43.958,140.687 42.791,141.620 42.134 C 145.467 39.423,156.511 33.385,162.147 30.912 C 163.183 30.458,164.539 29.863,165.160 29.590 C 165.782 29.317,166.883 28.885,167.608 28.630 C 168.333 28.374,170.367 27.656,172.128 27.033 C 178.364 24.828,183.342 23.516,192.655 21.623 C 202.296 19.663,207.489 16.849,209.427 12.533 C 210.451 10.251,210.853 5.444,210.166 3.689 C 208.770 0.124,207.910 -1.004,207.910 0.731 M13.371 2.260 C 13.499 2.467,13.345 2.637,13.028 2.637 C 12.215 2.637,12.678 3.597,13.522 3.660 C 14.023 3.698,14.218 3.455,14.218 2.798 C 14.218 2.255,13.999 1.883,13.678 1.883 C 13.381 1.883,13.243 2.053,13.371 2.260 M10.479 2.639 C 10.412 2.833,9.981 3.048,9.520 3.118 C 8.358 3.294,7.978 3.766,8.999 3.766 C 9.460 3.766,9.740 3.924,9.621 4.117 C 9.501 4.310,9.567 4.569,9.767 4.692 C 9.971 4.818,10.064 4.572,9.979 4.133 C 9.864 3.537,9.981 3.398,10.470 3.550 C 11.513 3.874,12.150 3.255,11.311 2.731 C 10.905 2.478,10.548 2.438,10.479 2.639 M6.754 3.814 C 6.452 4.379,6.444 4.689,6.728 4.865 C 6.973 5.016,6.706 5.465,6.049 6.008 C 5.454 6.499,5.054 7.128,5.160 7.406 C 5.267 7.683,5.194 7.910,4.999 7.910 C 4.805 7.910,4.645 8.186,4.645 8.524 C 4.645 9.090,4.681 9.090,5.091 8.530 C 5.336 8.195,5.671 8.046,5.837 8.198 C 6.002 8.350,6.044 8.093,5.929 7.627 C 5.771 6.987,5.885 6.780,6.392 6.780 C 7.209 6.780,8.066 5.831,7.734 5.294 C 7.595 5.070,7.721 4.992,8.030 5.111 C 8.327 5.225,8.674 5.035,8.808 4.684 C 8.998 4.191,8.884 4.096,8.292 4.251 C 7.608 4.430,7.356 4.131,7.488 3.296 C 7.576 2.743,7.176 3.025,6.754 3.814 M185.863 4.164 C 185.320 5.043,186.446 5.296,190.428 5.192 C 193.783 5.105,194.539 4.981,194.539 4.520 C 194.539 3.802,186.296 3.464,185.863 4.164 M3.390 7.216 C 2.765 8.078,2.353 8.882,2.474 9.002 C 2.594 9.123,2.860 8.923,3.065 8.558 C 3.269 8.193,3.595 7.992,3.790 8.112 C 3.984 8.232,4.164 8.066,4.190 7.744 C 4.263 6.833,4.321 6.626,4.642 6.121 C 5.379 4.959,4.411 5.807,3.390 7.216 M0.942 10.922 C 0.810 11.337,0.544 11.676,0.351 11.676 C -0.434 11.676,0.067 12.731,0.930 12.896 C 1.442 12.994,1.771 12.929,1.661 12.752 C 1.552 12.574,1.654 12.429,1.888 12.429 C 2.134 12.429,2.064 12.180,1.722 11.838 C 0.968 11.084,0.948 10.679,1.695 11.299 C 2.415 11.897,2.436 11.421,1.721 10.706 C 1.253 10.239,1.150 10.267,0.942 10.922 M6.906 12.643 C 6.782 12.968,6.872 13.425,7.106 13.660 C 7.424 13.978,7.533 13.827,7.533 13.070 C 7.533 11.936,7.251 11.744,6.906 12.643 M201.695 12.429 C 201.561 12.647,201.910 12.804,202.520 12.800 C 203.342 12.796,203.452 12.713,203.013 12.429 C 202.290 11.962,201.984 11.962,201.695 12.429 M0.753 14.683 C 1.271 14.852,1.473 15.008,1.202 15.028 C 0.931 15.049,0.814 15.235,0.942 15.443 C 1.070 15.650,0.868 15.833,0.493 15.849 C 0.098 15.866,0.009 15.958,0.282 16.069 C 0.541 16.173,0.753 16.483,0.753 16.757 C 0.753 17.067,1.033 17.182,1.494 17.062 C 2.861 16.704,2.425 14.475,0.978 14.419 C -0.127 14.377,-0.139 14.391,0.753 14.683 M5.283 15.619 C 4.763 16.246,5.068 16.949,5.860 16.949 C 6.448 16.949,6.615 15.618,6.069 15.281 C 5.885 15.167,5.532 15.319,5.283 15.619 M189.360 19.098 C 189.826 19.188,190.589 19.188,191.055 19.098 C 191.521 19.008,191.139 18.935,190.207 18.935 C 189.275 18.935,188.894 19.008,189.360 19.098 M165.160 20.339 C 165.455 20.817,166.869 20.817,167.608 20.339 C 168.021 20.072,167.737 19.972,166.550 19.968 C 165.563 19.965,165.018 20.110,165.160 20.339 M179.661 20.339 C 179.661 20.792,181.808 20.792,182.863 20.339 C 183.416 20.101,183.091 20.008,181.638 19.989 C 180.551 19.974,179.661 20.132,179.661 20.339 M174.999 21.854 C 175.250 22.105,175.896 22.118,176.863 21.891 L 178.343 21.545 176.478 21.507 C 175.209 21.481,174.737 21.592,174.999 21.854 M166.843 23.663 L 165.947 24.388 167.154 24.653 C 168.879 25.032,170.693 24.569,170.545 23.788 C 170.366 22.841,167.958 22.760,166.843 23.663 M153.672 27.872 C 153.245 28.148,153.410 28.238,154.354 28.243 C 155.090 28.246,155.505 28.094,155.367 27.872 C 155.075 27.399,154.404 27.399,153.672 27.872 M160.452 27.872 C 159.567 28.155,159.585 28.176,160.757 28.211 C 161.500 28.233,161.909 28.096,161.770 27.872 C 161.642 27.665,161.505 27.512,161.466 27.533 C 161.426 27.553,160.970 27.706,160.452 27.872 M145.857 28.132 C 146.219 28.226,146.813 28.226,147.175 28.132 C 147.538 28.037,147.241 27.959,146.516 27.959 C 145.791 27.959,145.494 28.037,145.857 28.132 M156.685 29.190 C 156.685 29.655,156.982 29.774,157.910 29.685 C 158.583 29.620,159.134 29.397,159.134 29.190 C 159.134 28.983,158.583 28.760,157.910 28.696 C 156.982 28.606,156.685 28.726,156.685 29.190 M149.244 29.473 C 149.329 29.732,149.928 29.996,150.576 30.060 C 151.317 30.134,151.834 30.432,151.972 30.867 C 152.092 31.247,152.482 31.632,152.837 31.723 C 153.474 31.886,156.157 30.985,155.875 30.702 C 155.696 30.524,153.781 30.205,152.637 30.163 C 152.148 30.145,151.789 29.892,151.789 29.567 C 151.789 29.170,151.388 29.002,150.439 29.002 C 149.528 29.002,149.140 29.155,149.244 29.473 M144.127 30.010 C 143.991 30.146,143.879 30.750,143.879 31.352 C 143.879 32.658,145.124 32.711,145.310 31.413 C 145.427 30.601,144.562 29.575,144.127 30.010 M146.355 34.867 C 145.550 35.671,145.611 36.158,146.516 36.158 C 147.068 36.158,147.269 35.907,147.269 35.217 C 147.269 34.115,147.151 34.070,146.355 34.867 M140.323 37.957 C 139.850 38.430,140.169 38.795,141.055 38.795 C 141.573 38.795,141.996 38.645,141.996 38.462 C 141.996 38.068,140.626 37.654,140.323 37.957 M135.026 39.552 C 134.895 39.763,135.291 40.034,135.912 40.158 C 136.593 40.294,137.109 40.674,137.227 41.125 C 137.364 41.648,137.680 41.831,138.296 41.744 C 139.380 41.590,139.359 41.005,138.250 40.439 C 137.790 40.204,137.224 39.823,136.993 39.592 C 136.469 39.067,135.339 39.045,135.026 39.552 M133.333 43.857 C 133.333 44.156,133.484 44.493,133.667 44.606 C 134.082 44.863,134.926 43.903,134.586 43.562 C 134.137 43.114,133.333 43.304,133.333 43.857 M342.750 45.637 C 342.750 45.985,344.665 47.927,344.838 47.755 C 344.928 47.665,344.495 47.106,343.876 46.512 C 343.256 45.919,342.750 45.525,342.750 45.637 M123.049 48.452 C 122.748 48.753,123.088 49.341,123.563 49.341 C 123.758 49.341,123.917 49.087,123.917 48.776 C 123.917 48.193,123.473 48.028,123.049 48.452 M117.374 49.899 C 116.701 50.408,116.715 50.445,117.655 50.681 C 119.188 51.066,120.093 50.604,119.173 49.907 C 118.290 49.239,118.245 49.239,117.374 49.899 M124.670 50.256 C 124.670 50.641,125.010 50.847,125.643 50.847 C 126.823 50.847,126.694 49.963,125.488 49.785 C 124.945 49.706,124.670 49.864,124.670 50.256 M349.529 52.427 C 349.529 52.756,355.238 58.447,355.402 58.282 C 355.474 58.211,354.182 56.809,352.531 55.168 C 350.880 53.526,349.529 52.293,349.529 52.427 M119.397 54.049 C 119.397 54.474,119.662 54.629,120.245 54.546 C 120.711 54.480,121.092 54.256,121.092 54.049 C 121.092 53.842,120.711 53.618,120.245 53.552 C 119.662 53.469,119.397 53.624,119.397 54.049 M106.130 60.474 C 105.666 60.938,106.342 62.147,107.065 62.147 C 107.769 62.147,108.811 61.206,108.839 60.546 C 108.853 60.221,106.447 60.157,106.130 60.474 M114.025 60.489 C 113.723 60.791,114.118 61.770,114.541 61.770 C 114.726 61.770,114.878 61.431,114.878 61.017 C 114.878 60.283,114.478 60.035,114.025 60.489 M102.306 62.458 C 102.139 62.939,102.103 63.434,102.225 63.556 C 102.616 63.947,102.890 63.371,102.747 62.462 L 102.609 61.582 102.306 62.458 M108.945 63.896 C 108.400 64.124,108.312 65.392,108.820 65.706 C 109.476 66.111,111.172 65.190,111.041 64.500 C 110.915 63.840,109.828 63.527,108.945 63.896 M103.578 65.906 C 103.578 66.463,103.977 66.872,104.896 67.256 C 106.236 67.816,106.799 69.303,105.672 69.303 C 104.964 69.303,104.527 70.026,104.968 70.467 C 106.355 71.854,107.257 68.118,105.957 66.370 C 104.978 65.053,103.578 64.781,103.578 65.906 M102.287 69.020 C 102.124 69.589,102.123 70.352,102.286 70.715 C 102.654 71.539,102.969 70.209,102.731 68.832 C 102.593 68.035,102.566 68.047,102.287 69.020 M95.692 81.827 C 95.507 82.293,94.834 83.096,94.194 83.612 C 93.353 84.290,93.035 84.863,93.042 85.683 L 93.052 86.817 94.162 85.499 C 94.772 84.774,95.276 84.042,95.282 83.871 C 95.287 83.701,95.546 83.308,95.857 82.997 C 96.387 82.467,96.658 80.979,96.224 80.979 C 96.115 80.979,95.876 81.361,95.692 81.827 M91.525 82.329 C 91.525 83.509,92.410 83.380,92.587 82.174 C 92.667 81.631,92.509 81.356,92.117 81.356 C 91.732 81.356,91.525 81.696,91.525 82.329 M91.788 87.530 C 91.634 87.923,91.596 88.332,91.705 88.441 C 92.048 88.784,92.351 88.221,92.207 87.506 C 92.075 86.850,92.055 86.852,91.788 87.530 M162.335 90.659 C 143.553 91.735,132.722 100.004,128.639 116.384 C 128.086 118.601,128.041 124.516,128.161 179.096 C 128.300 242.720,128.272 241.650,129.902 245.001 C 130.106 245.420,130.768 246.864,131.374 248.211 C 133.533 253.009,140.002 260.830,142.457 261.609 C 142.864 261.738,143.901 262.314,144.762 262.889 C 145.623 263.465,146.751 264.065,147.269 264.224 C 147.787 264.382,148.802 264.827,149.524 265.213 C 150.246 265.598,151.115 265.913,151.455 265.913 C 151.795 265.913,152.689 266.171,153.441 266.485 C 155.649 267.407,279.474 267.110,282.486 266.175 C 289.622 263.960,298.259 257.430,301.514 251.789 C 302.111 250.753,302.717 249.821,302.859 249.718 C 303.563 249.204,305.212 244.437,306.240 239.944 C 307.215 235.683,307.376 125.547,306.417 119.694 C 304.846 110.110,300.178 102.390,292.634 96.898 C 290.894 95.632,285.076 92.655,284.339 92.655 C 284.108 92.655,283.384 92.408,282.731 92.105 C 279.247 90.489,277.250 90.438,219.397 90.490 C 189.153 90.518,163.475 90.593,162.335 90.659 M282.109 92.316 C 294.044 96.453,301.048 103.349,304.831 114.689 L 305.962 118.079 306.217 176.836 C 306.488 239.304,306.515 238.120,304.723 243.921 C 301.218 255.267,290.492 264.488,278.719 266.276 C 273.932 267.003,156.368 266.759,153.672 266.016 C 140.719 262.448,131.735 252.880,129.177 239.925 C 128.169 234.818,128.038 121.541,129.035 117.024 C 131.708 104.919,139.937 95.960,151.601 92.455 C 155.440 91.302,158.186 91.255,219.586 91.297 L 279.284 91.337 282.109 92.316 M87.633 92.721 C 87.376 93.702,87.608 94.162,88.358 94.162 C 89.128 94.162,89.445 93.138,88.885 92.462 C 88.242 91.687,87.884 91.761,87.633 92.721 M85.013 96.422 C 84.775 97.334,85.086 98.682,85.536 98.682 C 85.974 98.682,86.387 96.941,86.116 96.234 C 85.810 95.436,85.246 95.532,85.013 96.422 M158.533 101.710 C 149.641 102.508,141.999 109.161,139.389 118.376 C 138.597 121.172,138.620 231.831,139.414 237.960 C 140.480 246.193,147.526 253.587,156.176 255.549 C 158.463 256.068,165.611 256.123,218.832 256.034 L 278.908 255.932 281.798 254.557 C 289.243 251.017,294.158 245.364,295.311 239.020 C 296.054 234.929,296.371 122.701,295.648 119.791 C 293.477 111.055,286.081 103.645,277.948 102.057 C 275.503 101.579,163.608 101.254,158.533 101.710 M279.135 102.701 C 279.428 102.944,280.389 103.391,281.272 103.695 C 287.786 105.939,294.087 113.471,295.230 120.378 C 295.465 121.801,295.507 143.569,295.345 180.979 L 295.094 239.360 293.506 242.691 C 290.471 249.057,284.894 253.604,278.225 255.149 C 274.402 256.035,161.035 256.053,156.685 255.169 C 153.831 254.588,149.455 252.600,147.917 251.186 C 144.956 248.463,143.354 246.749,142.848 245.763 C 142.529 245.141,142.164 244.548,142.038 244.444 C 139.707 242.536,139.507 236.651,139.340 165.348 C 139.230 118.335,139.189 119.638,140.932 115.443 C 143.126 110.159,146.749 106.554,152.654 103.779 C 154.146 103.078,155.791 102.428,156.309 102.335 C 158.668 101.912,278.615 102.269,279.135 102.701 M83.867 102.699 C 83.476 103.090,83.572 104.331,83.992 104.331 C 84.200 104.331,84.369 103.908,84.369 103.390 C 84.369 102.404,84.282 102.284,83.867 102.699 M82.950 105.838 C 82.950 106.563,83.027 106.860,83.122 106.497 C 83.217 106.135,83.217 105.541,83.122 105.179 C 83.027 104.816,82.950 105.113,82.950 105.838 M78.719 112.967 C 78.719 113.160,78.452 113.585,78.124 113.912 C 77.203 114.834,77.680 115.389,78.631 114.503 C 79.497 113.695,79.763 112.618,79.096 112.618 C 78.889 112.618,78.719 112.775,78.719 112.967 M72.348 117.985 L 72.380 121.092 72.902 119.021 C 73.426 116.937,73.307 114.878,72.663 114.878 C 72.472 114.878,72.331 116.276,72.348 117.985 M75.935 118.110 C 75.441 119.396,75.791 122.034,76.456 122.034 C 76.942 122.034,77.206 120.427,76.966 118.927 C 76.728 117.439,76.317 117.113,75.935 118.110 M74.827 124.545 C 74.455 124.917,74.534 126.659,74.953 127.307 C 75.217 127.716,75.320 127.377,75.324 126.083 C 75.330 124.266,75.275 124.097,74.827 124.545 M53.018 127.573 C 53.486 127.663,54.164 127.660,54.524 127.566 C 54.884 127.471,54.501 127.398,53.672 127.402 C 52.844 127.406,52.549 127.483,53.018 127.573 M396.736 135.028 C 396.736 135.339,396.877 135.593,397.050 135.593 C 397.222 135.593,397.363 135.876,397.363 136.221 C 397.363 136.566,397.469 136.744,397.597 136.615 C 397.908 136.304,397.433 134.463,397.042 134.463 C 396.874 134.463,396.736 134.718,396.736 135.028 M186.530 135.961 C 182.827 137.547,180.304 140.820,179.711 144.808 C 179.125 148.749,179.113 211.940,179.698 214.765 C 180.845 220.306,186.871 224.165,192.597 223.027 C 196.112 222.329,205.729 217.045,206.893 215.174 C 207.058 214.907,207.353 214.689,207.547 214.689 C 207.741 214.689,209.245 213.757,210.890 212.618 C 212.535 211.478,214.048 210.546,214.253 210.546 C 214.459 210.546,214.683 210.416,214.752 210.256 C 214.880 209.960,217.570 208.166,220.851 206.188 C 223.263 204.734,224.927 203.648,228.745 201.036 C 230.487 199.845,232.021 198.870,232.155 198.870 C 232.290 198.870,233.243 198.277,234.275 197.552 C 235.306 196.827,236.244 196.234,236.358 196.234 C 236.472 196.234,237.025 195.916,237.586 195.527 C 238.147 195.139,240.810 193.378,243.503 191.615 C 251.804 186.178,252.526 185.177,252.536 179.096 C 252.542 175.177,252.486 174.874,251.507 173.488 C 250.937 172.682,250.471 171.910,250.471 171.773 C 250.471 171.048,244.337 166.907,234.164 160.764 C 231.307 159.039,227.832 156.910,226.443 156.033 C 225.054 155.157,223.070 153.923,222.034 153.291 C 220.998 152.660,217.863 150.682,215.066 148.896 C 212.269 147.109,209.642 145.461,209.228 145.233 C 208.814 145.004,206.779 143.716,204.707 142.371 C 195.438 136.352,190.050 134.452,186.530 135.961 M196.316 137.983 C 198.239 138.940,200.829 140.380,202.072 141.183 C 203.315 141.986,205.603 143.452,207.156 144.441 C 208.710 145.431,210.829 146.782,211.864 147.445 C 212.900 148.107,214.817 149.313,216.123 150.125 C 217.429 150.937,219.887 152.503,221.584 153.606 C 223.282 154.709,226.365 156.629,228.437 157.873 C 232.229 160.149,236.483 162.755,242.295 166.359 C 250.157 171.234,252.166 173.820,252.166 179.063 C 252.165 185.241,250.066 187.318,233.662 197.363 C 232.478 198.089,228.909 200.377,225.732 202.448 C 222.555 204.520,218.389 207.217,216.475 208.442 C 212.439 211.024,209.151 213.207,204.143 216.630 C 193.494 223.908,188.063 224.562,182.709 219.208 C 179.765 216.264,179.917 218.146,179.834 183.616 C 179.744 146.226,179.872 143.355,181.753 140.624 C 185.268 135.521,189.737 134.710,196.316 137.983 M398.117 139.832 C 398.117 140.143,398.371 140.608,398.682 140.866 C 399.141 141.248,399.247 141.230,399.247 140.770 C 399.247 140.459,398.992 139.994,398.682 139.736 C 398.222 139.355,398.117 139.373,398.117 139.832 M7.964 141.585 C 7.585 141.820,7.567 141.973,7.894 142.175 C 8.411 142.495,8.799 142.212,8.608 141.655 C 8.530 141.427,8.264 141.398,7.964 141.585 M0.000 143.503 C 0.000 144.836,0.130 144.879,1.130 143.879 C 1.911 143.098,2.144 142.544,1.533 142.922 C 1.340 143.041,1.076 142.966,0.945 142.756 C 0.483 142.008,0.000 142.390,0.000 143.503 M5.148 142.624 C 5.009 142.762,4.896 143.196,4.896 143.588 C 4.896 143.980,4.727 144.196,4.520 144.068 C 4.313 143.940,4.143 144.085,4.143 144.391 C 4.143 144.697,4.016 145.003,3.861 145.072 C 3.376 145.288,2.260 147.668,2.260 148.487 C 2.260 149.247,2.280 149.245,3.013 148.399 C 3.427 147.922,3.766 147.218,3.766 146.835 C 3.766 146.452,3.936 146.139,4.143 146.139 C 4.350 146.139,4.520 145.879,4.520 145.562 C 4.520 145.244,5.113 144.634,5.838 144.206 C 7.285 143.352,7.467 142.949,6.561 142.602 C 5.795 142.308,5.459 142.313,5.148 142.624 M399.247 145.763 C 399.247 146.384,399.416 146.893,399.623 146.893 C 399.831 146.893,400.000 146.384,400.000 145.763 C 400.000 145.141,399.831 144.633,399.623 144.633 C 399.416 144.633,399.247 145.141,399.247 145.763 M399.247 224.105 C 399.247 224.727,399.416 225.235,399.623 225.235 C 399.831 225.235,400.000 224.727,400.000 224.105 C 400.000 223.484,399.831 222.976,399.623 222.976 C 399.416 222.976,399.247 223.484,399.247 224.105 M397.976 229.302 C 397.613 229.889,398.424 230.728,398.897 230.256 C 399.136 230.016,399.218 229.637,399.079 229.411 C 398.781 228.930,398.239 228.877,397.976 229.302 M396.610 235.074 C 396.610 235.740,396.704 235.796,397.171 235.408 C 397.738 234.938,397.617 234.275,396.965 234.275 C 396.770 234.275,396.610 234.635,396.610 235.074 M244.068 375.141 L 243.126 375.443 244.140 375.480 C 244.697 375.501,245.258 375.348,245.386 375.141 C 245.651 374.713,245.405 374.713,244.068 375.141 " stroke="none" fill="#758586" fill-rule="evenodd"></path></g></svg>